<?xml version="1.0" standalone="no"?>
<!DOCTYPE svg PUBLIC "-//W3C//DTD SVG 20010904//EN"
 "http://www.w3.org/TR/2001/REC-SVG-20010904/DTD/svg10.dtd">
<svg version="1.0" xmlns="http://www.w3.org/2000/svg"
 width="1024.000000pt" height="1024.000000pt" viewBox="0 0 1024.000000 1024.000000"
 preserveAspectRatio="xMidYMid meet">

<g transform="translate(0.000000,1024.000000) scale(0.100000,-0.100000)"
fill="#000000" stroke="none">
<path d="M4925 9369 c-389 -29 -830 -127 -1200 -266 -161 -61 -432 -193 -580
-282 -382 -231 -800 -585 -1086 -921 -82 -96 -264 -337 -317 -418 -33 -53 -34
-54 -70 -45 -65 15 -154 8 -197 -14 -54 -28 -107 -81 -129 -130 l-18 -40 -156
-6 c-86 -4 -197 -7 -245 -7 -49 0 -97 -5 -108 -10 -24 -13 -25 -36 -2 -45 10
-4 142 -10 294 -13 309 -5 279 -12 294 64 8 40 65 107 105 124 17 7 54 11 89
8 99 -7 161 -70 161 -163 0 -56 15 -58 51 -6 35 50 105 84 173 84 62 0 144
-39 176 -83 21 -29 24 -30 99 -30 l77 0 18 57 c25 77 108 162 185 188 64 21
136 16 187 -14 l34 -20 5 27 c19 90 29 120 55 171 69 137 190 239 349 294 75
26 101 30 201 31 131 1 191 -11 299 -60 172 -79 302 -230 350 -406 l13 -46 42
19 c56 25 157 25 214 -1 52 -24 102 -58 102 -70 0 -8 -33 -38 -221 -200 l-63
-55 -751 0 c-749 0 -750 0 -790 -22 -56 -29 -79 -57 -114 -136 -17 -38 -31
-71 -31 -74 0 -3 17 11 38 31 20 21 75 56 121 79 l84 42 691 2 c685 3 691 3
661 -16 -29 -19 -58 -20 -662 -23 l-633 -3 -27 -27 -28 -28 585 -2 c322 -1
600 -2 618 -3 17 0 32 -3 32 -7 0 -4 -33 -35 -72 -70 -40 -35 -92 -82 -115
-105 -31 -32 -51 -43 -73 -43 -16 0 -30 -4 -30 -10 0 -5 24 -10 53 -10 l52 0
161 143 c89 78 271 239 405 357 673 595 872 765 877 751 2 -6 101 -94 219
-198 245 -212 573 -503 648 -574 28 -26 75 -69 106 -95 31 -27 116 -103 189
-169 73 -66 157 -141 186 -167 l54 -47 104 1 c58 1 111 5 118 9 9 6 4 9 -14 9
-18 0 -61 27 -137 88 -61 48 -124 96 -141 107 -16 11 -29 23 -30 26 0 3 286 5
635 4 349 -1 635 0 635 3 0 16 -67 117 -97 147 l-35 35 -710 0 c-802 -1 -716
-10 -806 83 l-44 45 17 33 c60 118 200 161 301 93 l34 -23 14 28 c25 48 121
128 177 146 136 46 289 -19 361 -152 9 -18 30 -39 47 -47 l30 -16 11 38 c16
63 51 105 109 135 71 35 130 36 190 2 23 -14 46 -25 51 -25 4 0 10 22 13 49
12 105 92 207 202 258 52 24 72 28 150 28 79 0 97 -3 150 -29 84 -41 166 -126
193 -199 32 -84 30 -91 -37 -136 -60 -41 -117 -115 -139 -180 -17 -49 -16 -51
27 -51 34 0 40 3 46 28 26 105 148 195 265 195 57 0 107 -19 147 -55 22 -20
22 -20 51 1 49 35 114 47 170 33 69 -19 117 -57 168 -134 l46 -68 252 0 c291
0 347 10 303 54 -10 10 -75 15 -262 18 l-249 4 -20 29 c-68 94 -145 153 -215
164 -32 6 -44 18 -129 141 -158 226 -276 365 -501 590 -441 440 -859 722
-1376 928 -538 215 -1153 312 -1710 271z m606 -114 c655 -69 1230 -272 1749
-619 447 -297 904 -750 1164 -1152 26 -40 28 -47 15 -60 -14 -13 -22 -12 -74
12 -37 17 -82 29 -125 32 l-67 4 -16 52 c-66 209 -280 344 -497 315 -135 -19
-280 -124 -330 -240 l-24 -55 -86 0 c-76 1 -91 -2 -138 -28 -29 -17 -66 -45
-82 -63 l-29 -33 -53 52 c-144 140 -364 145 -508 11 l-58 -54 -47 12 c-121 31
-252 -25 -314 -132 l-28 -49 -79 72 c-43 40 -97 89 -119 109 -22 21 -56 50
-76 66 -19 15 -109 93 -199 173 l-164 145 162 3 c160 2 163 3 211 32 120 74
209 78 354 15 15 -6 17 -1 17 52 0 147 118 261 280 271 93 5 166 -20 233 -78
48 -42 97 -128 97 -168 0 -22 3 -24 28 -17 15 3 57 9 94 12 57 4 74 2 124 -21
31 -14 74 -42 96 -61 l38 -35 213 2 212 3 3 24 c2 13 -2 28 -10 32 -7 5 -98 9
-201 9 l-188 0 -47 39 c-76 62 -107 74 -209 79 l-92 4 -23 47 c-46 94 -150
174 -267 201 -178 42 -390 -76 -441 -246 l-12 -39 -108 0 c-106 0 -108 0 -191
-42 l-84 -42 -182 -2 -181 -3 -40 36 c-72 65 -75 65 -141 12 -32 -26 -62 -47
-67 -46 -5 1 -16 36 -25 79 -42 193 -114 327 -254 469 -90 90 -112 106 -205
153 -125 61 -231 90 -360 97 -170 10 -378 -40 -527 -127 -32 -19 -105 -81
-163 -139 -86 -86 -114 -122 -152 -195 -26 -50 -58 -128 -71 -175 l-25 -85
-67 -18 c-202 -53 -390 -220 -456 -404 l-21 -59 -67 4 c-50 3 -80 -1 -124 -18
-75 -28 -165 -111 -204 -188 -16 -31 -36 -58 -45 -60 -9 -2 -41 20 -73 47 -96
84 -206 102 -319 53 l-46 -21 -14 26 c-13 25 -10 31 82 157 257 355 482 599
777 846 554 463 1074 713 1775 854 116 23 376 61 480 69 130 10 481 6 611 -8z
m-1192 -670 c191 -60 365 -197 471 -372 52 -85 98 -212 112 -307 l12 -87 -39
-39 c-22 -22 -130 -118 -239 -214 l-200 -174 -35 29 c-84 66 -211 101 -298 81
l-42 -10 -12 37 c-29 90 -73 158 -158 241 -95 94 -162 137 -266 174 -82 29
-225 50 -273 41 l-34 -6 7 33 c25 113 114 266 217 371 100 101 213 165 372
208 90 24 319 21 405 -6z m3286 -1595 c14 -15 15 -20 4 -20 -130 -1 -1264 3
-1291 5 -40 3 -58 11 -58 26 0 5 256 9 663 9 651 0 664 0 682 -20z"/>
<path d="M5372 8988 c-19 -19 -14 -28 14 -28 15 0 32 -8 39 -17 11 -15 13 -15
24 5 7 14 21 22 37 22 16 0 24 5 22 13 -6 16 -46 21 -63 7 -10 -8 -19 -8 -34
-1 -25 14 -24 14 -39 -1z"/>
<path d="M4030 8946 c0 -45 13 -86 26 -86 15 0 20 63 8 94 -10 25 -34 19 -34
-8z"/>
<path d="M4376 8914 c-11 -29 -7 -64 9 -64 8 0 15 8 15 18 0 9 3 27 6 40 7 26
-20 32 -30 6z"/>
<path d="M4652 8811 c-46 -75 -51 -91 -24 -91 18 0 92 116 92 144 0 34 -27 13
-68 -53z"/>
<path d="M3680 8825 c0 -3 7 -21 14 -40 10 -23 20 -33 29 -29 22 8 0 74 -25
74 -10 0 -18 -2 -18 -5z"/>
<path d="M6269 8751 c-17 -18 -29 -35 -25 -38 3 -4 12 -1 18 5 23 23 61 13
100 -25 l37 -36 39 43 c39 44 39 44 78 32 21 -6 39 -10 41 -8 2 1 -8 15 -21
29 -32 34 -75 35 -113 3 -29 -24 -30 -25 -46 -5 -9 10 -23 19 -31 19 -8 0 -21
3 -30 6 -10 4 -27 -6 -47 -25z"/>
<path d="M5040 8710 c0 -6 8 -14 18 -17 9 -4 22 -13 28 -21 8 -12 12 -11 23 2
8 9 22 16 32 16 11 0 19 7 19 15 0 18 -41 20 -57 4 -8 -8 -13 -8 -17 0 -9 14
-46 14 -46 1z"/>
<path d="M3330 8643 c1 -14 40 -56 47 -50 7 8 -24 57 -37 57 -6 0 -10 -3 -10
-7z"/>
<path d="M4890 8601 c-14 -20 -17 -32 -9 -37 14 -9 64 40 55 55 -11 18 -23 13
-46 -18z"/>
<path d="M6659 8512 l-34 -30 -28 24 c-39 33 -81 31 -118 -5 -35 -35 -39 -59
-7 -37 37 26 74 20 112 -19 20 -19 38 -35 42 -35 4 0 24 18 44 40 38 41 65 49
101 30 14 -8 19 -7 19 3 0 21 -32 46 -67 53 -24 5 -37 0 -64 -24z"/>
<path d="M3070 8485 c0 -8 32 -40 71 -71 55 -43 73 -54 82 -44 9 9 -3 25 -53
71 -64 57 -100 74 -100 44z"/>
<path d="M5547 8462 c-25 -27 -21 -31 18 -25 31 5 39 1 70 -33 35 -38 35 -38
50 -17 38 54 65 65 106 43 23 -13 24 -7 3 25 -20 31 -71 34 -104 7 -23 -18
-24 -18 -42 0 -24 24 -80 24 -101 0z"/>
<path d="M5123 8368 c-23 -11 -29 -28 -17 -41 11 -11 63 25 57 40 -6 15 -10
15 -40 1z"/>
<path d="M7292 8348 c-21 -21 -24 -22 -33 -5 -10 17 -35 22 -63 11 -23 -9 -20
-24 5 -24 11 0 32 -14 48 -30 l27 -30 22 30 c14 19 31 30 47 30 32 0 41 16 16
29 -29 16 -44 13 -69 -11z"/>
<path d="M2917 8223 c-19 -18 0 -33 68 -56 47 -16 77 -22 81 -15 9 14 -4 23
-75 52 -74 30 -66 28 -74 19z"/>
<path d="M5303 8153 c-34 -10 -53 -21 -53 -31 0 -12 9 -13 50 -8 69 9 79 14
73 37 -6 22 -3 22 -70 2z"/>
<path d="M2427 7922 c-24 -25 -35 -52 -22 -52 3 0 17 7 31 16 24 16 26 16 50
-7 l25 -24 17 22 c15 20 19 21 42 8 32 -18 40 -18 40 -2 0 18 -52 67 -71 67
-8 0 -20 -5 -26 -11 -8 -8 -13 -8 -17 0 -12 19 -41 12 -69 -17z"/>
<path d="M2197 7662 c-24 -25 -35 -52 -22 -52 3 0 17 7 31 16 23 15 26 15 43
0 20 -18 41 -21 41 -5 0 12 40 8 73 -6 27 -12 21 18 -11 48 -29 28 -72 37 -72
15 0 -9 -3 -9 -12 0 -19 19 -42 14 -71 -16z"/>
<path d="M4255 8252 c-2 -3 3 -15 12 -28 14 -22 17 -23 33 -9 9 8 27 15 40 15
40 0 9 18 -38 22 -24 2 -45 2 -47 0z"/>
<path d="M3882 8124 c-13 -9 -23 -11 -27 -4 -10 15 -52 12 -59 -5 -4 -10 1
-15 16 -15 12 0 30 -8 40 -17 18 -16 19 -15 34 5 8 12 22 22 30 22 8 0 14 4
14 9 0 17 -28 20 -48 5z"/>
<path d="M4285 7950 c-18 -20 -17 -20 12 -20 17 0 38 -8 48 -20 23 -25 37 -25
52 -1 7 11 26 21 45 23 30 3 31 4 14 21 -21 21 -40 22 -60 2 -8 -8 -19 -15
-24 -15 -5 0 -15 7 -22 15 -17 21 -44 19 -65 -5z"/>
<path d="M5029 7753 c-18 -20 -28 -33 -20 -28 8 4 17 2 23 -6 7 -11 8 -9 4 5
-4 12 1 27 15 43 13 12 20 23 18 23 -3 0 -21 -16 -40 -37z"/>
<path d="M5138 7753 c-1 -5 -28 -28 -58 -53 -63 -52 -99 -84 -251 -221 -46
-42 -111 -99 -144 -126 -33 -28 -69 -60 -79 -72 -23 -25 -44 -29 -25 -3 13 15
12 16 -3 3 -10 -7 -16 -17 -13 -21 5 -8 -72 -79 -255 -239 -52 -46 -124 -109
-160 -141 -36 -31 -90 -78 -120 -104 -30 -26 -64 -55 -75 -65 -11 -9 -40 -33
-64 -51 -39 -30 -46 -32 -72 -23 -16 6 -27 7 -23 2 3 -5 1 -9 -5 -9 -5 0 -11
4 -13 10 -2 5 -18 6 -43 1 -46 -10 -1195 -12 -1231 -2 -23 6 -23 8 36 94 33
48 57 87 52 87 -34 0 -171 -148 -254 -275 -32 -49 -80 -132 -105 -183 -39 -79
-48 -91 -56 -75 -19 34 -128 148 -175 181 -69 50 -154 88 -228 102 -64 12 -65
13 -59 40 15 69 -28 150 -80 150 -61 0 -99 -59 -93 -142 l3 -43 -45 -6 c-25
-4 -47 -5 -49 -3 -5 5 45 145 80 224 16 36 49 93 72 127 l42 63 385 0 c212 0
390 4 396 8 6 4 14 17 18 29 6 18 3 23 -16 28 -45 11 -1606 1 -1618 -11 -7 -7
-5 -16 10 -29 19 -17 47 -19 355 -23 184 -3 335 -6 335 -9 0 -2 -20 -43 -44
-91 -46 -92 -97 -226 -116 -303 -11 -43 -18 -50 -84 -92 -39 -25 -102 -77
-139 -115 -63 -65 -67 -73 -67 -115 0 -37 5 -49 26 -66 15 -12 41 -21 60 -21
l34 0 0 -149 0 -148 -60 -6 c-75 -6 -96 -20 -145 -92 -30 -43 -39 -65 -37 -93
15 -349 21 -423 41 -501 17 -66 62 -177 88 -221 2 -3 -23 -13 -55 -22 -72 -21
-167 -82 -215 -139 -50 -58 -105 -170 -117 -241 -7 -37 -10 -359 -8 -930 l3
-873 23 -65 c48 -135 131 -229 257 -291 59 -29 100 -42 155 -48 41 -5 305 -7
587 -6 l511 3 39 -40 c134 -139 423 -372 650 -526 960 -647 2173 -856 3280
-567 479 125 859 296 1273 570 220 146 361 261 582 472 l98 92 566 1 c544 0
568 1 627 21 155 52 263 165 323 339 18 52 19 99 19 955 l0 900 -23 65 c-30
84 -71 147 -131 203 -51 48 -143 100 -198 112 l-33 6 29 57 c43 86 81 218 88
305 l6 77 33 0 c49 0 81 16 99 49 21 41 19 55 -11 90 -25 30 -28 31 -110 31
l-84 0 0 225 c0 216 1 225 19 225 34 0 51 28 51 81 l0 49 35 0 c46 0 84 25
102 67 24 59 -7 122 -73 143 -19 7 -34 18 -34 26 0 36 -33 75 -88 103 -31 17
-90 56 -130 89 -88 71 -164 118 -227 140 -44 16 -49 21 -60 62 -7 25 -28 82
-48 128 l-36 82 132 1 c141 2 393 14 340 17 -40 2 -42 15 -5 29 23 9 24 11 7
13 -46 6 -1285 11 -1342 5 -66 -7 -78 -20 -46 -46 13 -11 94 -15 394 -19 l379
-5 34 -52 c32 -49 33 -53 15 -58 -39 -13 -79 -57 -90 -99 l-10 -42 -66 -12
c-88 -17 -144 -46 -273 -142 -81 -61 -190 -129 -206 -130 -1 0 -23 33 -49 73
-90 136 -265 347 -287 347 -12 0 27 -74 76 -145 23 -33 45 -65 49 -72 6 -9
-145 -11 -669 -8 -666 4 -677 4 -698 24 -26 24 -41 27 -33 6 4 -8 2 -17 -2
-19 -14 -9 -21 6 -11 24 11 21 -31 67 -51 55 -7 -5 -10 -4 -6 2 8 12 -20 39
-30 29 -3 -3 -2 -6 4 -6 5 0 10 -6 10 -14 0 -8 -8 -11 -19 -8 -10 2 -18 8 -18
11 0 4 -15 6 -32 4 -18 -2 -27 0 -20 3 10 5 9 11 -5 26 -18 21 -18 21 7 8 24
-13 24 -12 10 6 -8 10 -19 22 -25 26 -6 5 -4 8 4 8 10 0 7 8 -9 25 -25 26 -42
26 -20 0 9 -10 9 -15 1 -15 -6 0 -16 11 -22 24 -7 14 -17 22 -25 19 -8 -3 -11
-9 -8 -14 3 -5 -2 -6 -10 -3 -9 3 -16 1 -16 -6 0 -9 -243 200 -285 246 -5 6
-44 39 -85 75 -73 63 -287 251 -445 393 -88 79 -231 196 -238 196 -3 0 -7 -3
-9 -7z m142 -288 c14 -8 21 -14 15 -15 -5 0 2 -8 16 -18 14 -9 57 -43 96 -76
67 -55 70 -59 55 -77 -16 -19 -38 -27 -28 -10 7 11 -17 21 -50 21 -21 0 -28 9
-26 31 1 4 -8 5 -18 2 -21 -6 -28 13 -8 19 6 2 -6 5 -28 5 -21 1 -85 3 -141 5
-60 2 -103 0 -103 -5 0 -5 -13 -7 -30 -5 -16 3 -30 1 -30 -3 0 -5 -15 -16 -32
-25 -18 -9 -46 -30 -62 -45 -16 -16 -32 -27 -34 -24 -7 6 113 126 186 187 56
46 58 47 127 47 43 0 80 -5 95 -14z m134 -200 c-4 -8 -10 -12 -15 -9 -11 6 -2
24 11 24 5 0 7 -7 4 -15z m-124 -11 c23 -9 39 -18 37 -20 -2 -2 -25 5 -53 16
-27 10 -43 19 -37 20 7 0 31 -7 53 -16z m-265 -18 c-84 -41 -136 -100 -166
-189 -10 -29 -18 -45 -19 -36 -2 89 135 247 215 248 11 1 -2 -10 -30 -23z
m115 -105 c0 -97 -11 -101 -85 -36 -33 30 -57 56 -53 60 12 12 122 54 130 49
4 -3 8 -36 8 -73z m161 32 c16 -9 29 -20 29 -24 0 -12 -127 -119 -134 -112 -3
3 -6 46 -6 94 l0 88 41 -14 c22 -8 53 -22 70 -32z m279 19 c8 -1 27 -12 42
-25 48 -40 62 -52 123 -98 33 -25 69 -51 80 -58 17 -10 13 -11 -29 -7 -27 3
-95 6 -151 6 l-101 0 -17 54 c-10 29 -28 70 -42 90 -14 20 -25 38 -25 39 0 2
98 1 120 -1z m-786 -83 c-9 -24 -16 -54 -15 -66 1 -28 -11 -35 -41 -24 -16 6
-30 4 -48 -8 -24 -16 -24 -16 -9 7 18 25 123 138 127 136 1 0 -5 -21 -14 -45z
m249 -88 c33 -30 34 -36 2 -39 -14 -1 -25 3 -25 8 0 6 8 10 18 10 12 1 10 5
-10 15 -15 8 -30 24 -33 35 -4 11 -11 17 -17 14 -6 -4 -5 -9 3 -15 7 -4 10
-11 6 -15 -8 -8 -36 24 -37 41 0 6 5 3 10 -5 6 -9 10 -10 10 -3 0 6 -5 15 -10
18 -14 9 -32 -45 -26 -77 5 -23 2 -28 -14 -28 -27 0 -25 25 6 89 l27 52 31
-37 c17 -21 43 -49 59 -63z m331 57 c-6 -20 -5 -21 8 -10 13 10 18 6 33 -27 9
-22 15 -45 13 -51 -2 -7 -10 6 -18 29 -13 41 -33 59 -23 21 3 -11 0 -20 -6
-20 -5 0 -8 6 -5 13 3 8 -3 20 -12 28 -14 11 -16 11 -10 1 5 -9 1 -19 -14 -29
-12 -8 -19 -21 -16 -29 5 -14 -28 -29 -44 -19 -5 3 -10 1 -10 -4 0 -6 -5 -11
-12 -11 -10 0 109 128 120 130 2 0 0 -10 -4 -22z m-379 -88 c3 -5 -1 -10 -9
-10 -9 0 -16 5 -16 10 0 6 4 10 9 10 6 0 13 -4 16 -10z m-442 -67 c-13 -2 -33
-2 -45 0 -13 2 -3 4 22 4 25 0 35 -2 23 -4z m220 -51 c4 -32 9 -65 12 -73 4
-12 -21 -14 -154 -14 -180 0 -176 -3 -97 75 25 24 46 50 46 57 0 10 24 13 94
13 l93 0 6 -58z m251 32 c-16 -15 -43 -40 -60 -56 l-31 -30 0 26 c0 20 2 24
12 16 9 -8 15 -8 20 0 3 5 1 10 -5 10 -6 0 -8 5 -5 10 3 6 -2 11 -12 11 -17 1
-17 2 0 6 10 3 30 11 45 19 15 8 36 14 46 14 16 0 14 -4 -10 -26z m329 19 c-7
-2 -21 -2 -30 0 -10 3 -4 5 12 5 17 0 24 -2 18 -5z m608 -42 c35 -27 78 -63
94 -81 l30 -32 -40 8 c-22 4 -41 10 -43 15 -2 4 -15 4 -29 -2 -15 -5 -38 -8
-52 -5 -14 3 -109 8 -211 12 -102 3 -186 7 -188 9 -1 1 2 15 9 31 6 16 11 44
11 62 l0 32 178 0 177 0 64 -49z m-1054 17 c-3 -8 -6 -5 -6 6 -1 11 2 17 5 13
3 -3 4 -12 1 -19z m-498 -1 c-2 -1 -15 -11 -29 -22 l-25 -20 19 23 c11 12 24
22 29 22 6 0 8 -1 6 -3z m671 -12 c-22 -26 -133 -120 -129 -109 4 10 129 122
138 123 2 1 -2 -6 -9 -14z m53 -197 c-4 -8 -101 26 -115 40 -5 5 15 32 49 65
l58 56 6 -77 c3 -42 4 -80 2 -84z m162 48 c0 -10 -78 -55 -97 -56 -5 0 -8 36
-8 81 l0 81 53 -47 c28 -26 52 -53 52 -59z m-991 75 c-10 -10 -21 -16 -24 -14
-3 3 4 11 14 19 28 20 33 17 10 -5z m4490 -10 c17 -18 16 -20 -18 -46 -30 -23
-39 -25 -51 -15 -20 17 -19 36 5 60 25 25 42 25 64 1z m-2396 -86 c12 2 22 -1
22 -7 0 -5 -7 -7 -16 -4 -12 5 -15 2 -10 -10 4 -11 -3 -9 -23 8 -17 13 -30 27
-30 32 -1 5 7 2 17 -7 10 -9 28 -15 40 -12z m58 -10 c9 -8 11 -15 6 -15 -5 0
-15 7 -22 15 -7 8 -9 15 -6 15 4 0 14 -7 22 -15z m-4810 -22 c-2 -10 -8 -38
-11 -63 -4 -25 -10 -49 -13 -54 -9 -16 -21 26 -21 82 -1 49 0 52 25 52 19 0
24 -4 20 -17z m3199 10 c15 -5 15 -8 -6 -25 -22 -18 -22 -18 -2 -9 27 14 36
14 28 1 -4 -6 -3 -10 2 -9 19 3 33 -2 33 -12 0 -5 -4 -7 -10 -4 -6 3 -7 -1 -4
-9 4 -11 0 -16 -10 -16 -9 0 -16 -4 -16 -10 0 -13 13 -13 27 1 9 9 19 6 39
-10 l27 -21 -79 -2 -79 -1 60 -7 c43 -5 16 -7 -97 -8 -87 -1 -158 2 -158 6 0
5 39 7 88 6 58 -2 77 0 57 6 -37 10 -271 13 -261 3 3 -4 30 -6 59 -4 28 1 49
-1 44 -5 -4 -4 -74 -8 -155 -10 -97 -1 -139 1 -123 7 20 8 22 12 11 22 -10 9
-13 9 -17 0 -3 -7 -17 -13 -32 -13 -15 0 -33 6 -40 13 -8 6 -11 7 -8 1 7 -13
-32 -33 -51 -27 -7 3 18 29 58 61 38 30 68 58 65 61 -3 2 -51 8 -108 11 -63 4
40 7 270 8 204 1 379 -1 388 -5z m1330 -3 c3 -6 -4 -14 -17 -19 l-23 -8 23 -7
c12 -4 26 -16 32 -26 7 -14 5 -19 -10 -23 -12 -3 -20 -14 -20 -25 0 -11 -7
-23 -16 -26 -9 -4 -222 -6 -473 -5 -382 1 -448 3 -404 14 28 6 75 27 104 46
30 19 57 33 62 31 5 -1 5 2 2 8 -4 6 1 20 11 31 16 18 34 19 370 19 226 0 355
-4 359 -10z m2521 -10 c16 -16 105 -23 146 -12 37 10 38 10 106 -57 38 -37 75
-77 81 -89 l12 -22 -318 -1 c-265 -2 -297 -3 -193 -10 219 -14 219 -15 0 -17
-118 -1 -226 -5 -240 -8 -35 -8 80 100 157 146 98 60 224 95 249 70z m-3643
-127 c-7 -2 -19 -2 -25 0 -7 3 -2 5 12 5 14 0 19 -2 13 -5z m-3252 -37 c65
-20 115 -48 182 -101 73 -58 67 -73 -6 -18 -29 22 -71 50 -93 61 -37 19 -147
52 -173 52 -7 0 -1 -21 14 -50 14 -27 25 -55 25 -61 0 -7 7 -21 17 -31 16 -17
6 -18 -287 -18 -336 0 -323 -4 -231 65 62 45 136 81 202 99 72 20 288 21 350
2z m2269 -6 c0 -20 -8 -20 -826 -22 l-827 -3 -57 -95 c-32 -52 -64 -112 -71
-132 -12 -38 -35 -50 -45 -25 -7 19 29 98 93 205 l56 92 838 0 c832 0 839 0
839 -20z m3953 -52 c25 -40 43 -76 41 -80 -14 -22 -44 -2 -82 52 l-43 60 -859
0 c-853 0 -860 0 -860 20 0 20 7 20 879 20 l879 0 45 -72z m-3668 27 c-55 -16
-194 -20 -160 -5 18 8 17 9 -7 9 -14 1 -28 -4 -30 -11 -3 -7 -7 -6 -11 5 -6
15 5 17 126 16 130 0 131 -1 82 -14z m343 8 c-16 -2 -40 -2 -55 0 -16 2 -3 4
27 4 30 0 43 -2 28 -4z m1122 -8 c-18 -10 -55 -14 -125 -13 -83 1 -91 2 -50 8
28 4 -114 6 -315 4 -201 -1 -394 1 -430 5 -39 5 140 9 440 9 442 1 502 0 480
-13z m-1357 -12 c-13 -2 -33 -2 -45 0 -13 2 -3 4 22 4 25 0 35 -2 23 -4z
m-463 -73 c237 -12 951 -10 2915 5 l681 6 17 -36 c9 -20 17 -38 17 -40 0 -8
-25 -1 -32 10 -4 6 -894 9 -2431 10 -1334 0 -2423 3 -2421 6 2 3 7 17 12 30
l10 24 493 -2 c272 -1 604 -7 739 -13z m5354 0 c7 -7 -23 -10 -84 -10 -52 0
-183 -6 -290 -14 -107 -8 -276 -14 -375 -15 -99 -1 -244 -4 -322 -6 -136 -5
-143 -4 -143 14 0 11 8 27 17 37 16 16 56 17 603 10 357 -4 588 -10 594 -16z
m-3264 -80 c0 -12 -81 -21 -127 -14 -24 3 -70 1 -101 -5 -40 -9 -65 -9 -82 -2
-23 9 -22 10 15 12 22 1 54 4 70 8 42 9 225 9 225 1z m-1533 -6 c-3 -3 -12 -4
-19 -1 -8 3 -5 6 6 6 11 1 17 -2 13 -5z m3091 -19 c-3 -3 -9 2 -12 12 -6 14
-5 15 5 6 7 -7 10 -15 7 -18z m-5544 -5 c11 -11 -29 -14 -166 -10 -43 1 -92
-3 -110 -8 -18 -6 -185 -13 -370 -17 l-338 -6 0 24 c0 13 2 26 5 28 10 10 968
0 979 -11z m764 13 c-10 -2 -26 -2 -35 0 -10 3 -2 5 17 5 19 0 27 -2 18 -5z
m1415 0 c-7 -2 -21 -2 -30 0 -10 3 -4 5 12 5 17 0 24 -2 18 -5z m157 -3 l25
-8 -25 0 c-14 -1 -43 3 -65 7 l-40 9 40 0 c22 0 51 -4 65 -8z m612 -2 c-9 -4
-127 -6 -262 -6 -146 0 -235 3 -220 8 29 10 507 8 482 -2z m221 -5 c-7 -2 -19
-2 -25 0 -7 3 -2 5 12 5 14 0 19 -2 13 -5z m235 0 c-10 -2 -26 -2 -35 0 -10 3
-2 5 17 5 19 0 27 -2 18 -5z m1159 1 c-3 -3 -12 -4 -19 -1 -8 3 -5 6 6 6 11 1
17 -2 13 -5z m2703 -1 c-41 -2 -199 -11 -350 -20 -191 -12 -381 -17 -622 -15
l-348 3 0 -23 c0 -16 -3 -19 -11 -11 -7 7 -8 24 -4 42 l7 31 701 -2 c386 -1
668 -3 627 -5z m-7917 -50 c-7 -2 -19 -2 -25 0 -7 3 -2 5 12 5 14 0 19 -2 13
-5z m1458 -13 l46 0 -34 -67 c-41 -83 -59 -102 -108 -113 -37 -8 -105 8 -105
25 0 3 18 39 41 80 40 73 56 87 94 79 11 -2 41 -4 66 -4z m292 -10 c5 -4 4
-11 -2 -14 -6 -4 -11 -14 -11 -22 0 -8 -7 -31 -17 -52 -9 -20 -17 -41 -17 -47
-2 -15 -48 -35 -84 -35 -19 0 -45 9 -59 20 -14 11 -32 20 -39 20 -9 0 -6 17
12 62 13 33 26 63 28 65 9 10 42 10 54 0 8 -6 12 -6 12 1 0 21 102 23 123 2z
m317 -1 c0 -5 -5 -9 -11 -9 -5 0 -8 -4 -5 -9 3 -5 -1 -12 -10 -15 -9 -4 -14
-9 -11 -12 9 -9 -53 -103 -78 -120 -25 -16 -67 -11 -85 11 -13 16 56 163 78
167 29 6 122 -4 122 -13z m287 6 c5 -3 -30 -100 -39 -110 -7 -7 -8 -2 -3 13 3
12 2 22 -4 22 -14 0 -20 -13 -23 -48 -1 -17 -5 -30 -8 -30 -3 1 -17 -4 -32
-12 -26 -12 -92 -7 -102 8 -3 5 7 41 21 81 18 50 33 75 47 81 17 6 134 2 143
-5z m268 -62 c-17 -66 -38 -103 -51 -91 -7 8 37 151 51 160 18 13 18 -2 0 -69z
m279 32 c-10 -62 -35 -117 -50 -111 -8 3 -11 0 -8 -8 10 -27 -91 -34 -136 -11
-31 16 -40 35 -17 35 16 0 33 34 43 87 4 21 12 41 18 45 6 5 44 7 84 5 l73 -2
-7 -40z m187 35 c16 0 29 -4 29 -9 0 -5 -8 -8 -17 -6 -10 1 -12 0 -5 -2 8 -3
11 -11 8 -19 -4 -11 -2 -12 14 -2 11 7 21 19 24 28 2 8 4 -1 5 -20 1 -42 -14
-99 -32 -124 -27 -37 -157 -26 -157 13 0 9 4 32 9 51 5 19 12 47 15 62 6 26
34 40 64 32 8 -2 27 -4 43 -4z m276 0 l44 0 -6 -52 c-11 -95 -15 -108 -45
-123 -43 -22 -60 -19 -61 13 -2 23 -2 24 -6 5 -5 -26 -30 -30 -58 -9 -17 13
-18 19 -8 86 13 80 23 93 67 85 16 -3 48 -5 73 -5z m263 1 c25 -1 41 -5 35 -9
-15 -11 -17 -32 -2 -29 8 1 12 -12 13 -38 1 -45 -9 -80 -22 -80 -5 0 -8 -4 -6
-8 1 -5 -6 -6 -16 -3 -11 4 -24 0 -31 -7 -8 -10 -22 -12 -51 -7 -66 12 -73 24
-66 104 3 37 9 72 11 76 3 5 24 7 48 5 23 -1 62 -3 87 -4z m268 -1 l32 0 0
-75 c0 -68 -2 -76 -25 -91 -14 -9 -31 -14 -39 -11 -7 3 -18 1 -23 -4 -5 -5
-23 -2 -43 9 l-35 17 -3 84 -3 84 53 -6 c29 -4 68 -7 86 -7z m269 -4 c1 -1 7
-33 13 -70 12 -79 5 -95 -46 -99 -16 -1 -32 -6 -35 -10 -3 -5 -22 -1 -41 9
-39 18 -48 43 -48 138 l0 48 78 -7 c42 -4 78 -8 79 -9z m168 4 c13 -6 15 -9 5
-9 -12 -1 -13 -3 -1 -10 7 -5 13 -22 13 -37 0 -42 12 -54 19 -19 6 28 7 28 9
-10 1 -22 3 -52 5 -66 3 -24 0 -26 -35 -27 -60 -3 -79 20 -89 106 -4 40 -5 75
-2 77 7 8 54 4 76 -5z m153 -37 c24 -114 25 -126 11 -121 -25 8 -54 168 -30
168 5 0 14 -21 19 -47z m195 41 c20 -4 37 -12 37 -19 0 -7 7 -16 16 -19 9 -4
14 -13 10 -22 -4 -9 -2 -13 5 -8 7 4 9 0 5 -12 -3 -11 1 -31 9 -46 13 -27 13
-28 -11 -34 -13 -3 -24 -10 -24 -15 0 -4 -15 -11 -34 -14 -66 -13 -97 27 -111
138 l-7 57 33 0 c19 0 51 -3 72 -6z m283 -4 c34 0 54 -23 69 -78 13 -49 12
-55 -5 -72 -70 -70 -143 -42 -174 68 -26 94 -25 96 37 88 28 -3 61 -6 73 -6z
m253 -1 l26 -1 -25 -8 c-14 -4 -18 -8 -10 -9 22 -1 44 -42 41 -73 -1 -16 2
-28 8 -28 6 0 11 -5 11 -11 0 -5 -5 -7 -12 -3 -7 5 -8 3 -4 -5 5 -7 14 -10 21
-7 7 2 12 -2 11 -10 -1 -8 -6 -15 -12 -15 -5 0 -15 -5 -21 -11 -17 -14 -63 -1
-91 25 -19 18 -62 128 -62 159 0 7 17 8 46 4 26 -3 59 -6 73 -7z m165 -70 c30
-82 30 -79 12 -79 -13 0 -46 71 -62 135 -5 20 -3 24 9 19 8 -3 27 -37 41 -75z
m190 48 c17 -20 66 -110 66 -121 0 -6 -85 -46 -98 -46 -22 0 -53 42 -80 111
-17 41 -28 77 -26 81 2 3 30 4 62 1 41 -4 62 -11 76 -26z m226 22 c0 -6 7 -9
15 -5 8 3 15 2 15 -3 0 -10 38 -24 60 -22 13 2 13 1 0 -8 -13 -10 -8 -15 12
-12 4 0 4 -7 1 -16 -4 -10 -2 -14 4 -10 7 4 16 -6 22 -25 15 -42 13 -48 -5
-18 l-15 25 6 -31 c5 -26 2 -34 -19 -48 -56 -36 -103 -7 -150 94 -37 78 -35
90 14 90 23 0 40 -5 40 -11z m271 -5 c3 -2 19 -22 34 -46 16 -24 42 -60 58
-81 16 -21 28 -40 26 -42 -2 -2 -22 -6 -44 -9 -63 -9 -99 19 -141 109 -19 40
-34 77 -34 80 0 7 88 -3 101 -11z m-4246 -11 c-4 -10 -16 -41 -26 -70 -19 -48
-44 -82 -54 -71 -3 2 6 32 20 66 14 34 25 68 25 77 0 9 9 15 21 15 16 0 19 -4
14 -17z m282 -15 c-3 -7 -5 -2 -5 12 0 14 2 19 5 13 2 -7 2 -19 0 -25z m451 0
c-6 -18 -15 -55 -21 -83 -6 -27 -16 -53 -22 -57 -27 -20 -130 2 -122 26 2 6
15 41 28 79 l24 67 62 0 62 0 -11 -32z m-1828 -2 c0 -8 12 -24 26 -35 25 -19
40 -21 195 -21 188 0 180 4 154 -70 -26 -73 -15 -140 23 -140 10 0 36 18 57
40 21 22 46 40 56 40 9 0 34 -13 56 -29 34 -24 42 -37 47 -75 8 -48 -5 -109
-29 -140 -15 -19 -15 -19 -37 1 -61 55 -152 72 -215 40 -44 -23 -91 -81 -99
-123 -6 -30 -10 -35 -28 -30 -11 3 -28 6 -37 6 -11 0 -18 12 -22 34 -6 40 -80
151 -111 168 -11 6 -48 14 -81 17 l-60 6 -1 148 c-1 143 -1 147 20 147 11 1
32 7 46 15 32 18 40 18 40 1z m1151 -33 c-12 -20 -14 -14 -5 12 4 9 9 14 11
11 3 -2 0 -13 -6 -23z m238 -27 c-9 -33 -32 -56 -45 -44 -7 8 7 38 16 33 4 -3
13 9 19 27 15 43 23 31 10 -16z m595 6 c-4 -12 -10 -22 -15 -22 -11 0 -12 44
-2 53 12 12 23 -8 17 -31z m2976 -25 c0 -21 -18 7 -25 38 l-7 30 16 -29 c9
-15 16 -33 16 -39z m-5150 44 c26 -8 -308 -31 -440 -31 -52 0 -70 -3 -60 -10
13 -9 13 -10 0 -12 -8 -1 50 -4 128 -7 139 -6 144 -7 166 -32 15 -18 23 -41
24 -70 3 -76 11 -73 -250 -79 -213 -5 -274 -14 -158 -23 25 -2 1 -4 -52 -5
l-98 -2 0 140 0 140 358 -1 c196 -1 368 -4 382 -8z m6079 -24 c49 -2 51 -3 52
-32 2 -61 13 -80 49 -85 29 -4 36 -10 38 -32 2 -16 -1 -28 -7 -28 -6 0 -11 5
-11 11 0 8 -16 10 -49 7 -39 -4 -50 -1 -60 14 -17 28 -72 58 -106 58 -53 0
-138 -66 -128 -100 4 -12 3 -12 -5 -1 -5 7 -8 21 -5 30 3 11 -7 22 -31 34 -39
18 -42 30 -26 89 l11 37 97 3 c53 2 104 2 113 0 10 -1 40 -4 68 -5z m879 -14
l26 -28 -50 -2 c-27 -2 -203 -4 -392 -5 l-342 -3 0 33 0 32 366 0 367 0 25
-27z m-6293 -29 c-23 -36 -30 -23 -9 18 10 18 19 27 22 20 2 -7 -4 -24 -13
-38z m-1108 20 c-3 -3 -12 -4 -19 -1 -8 3 -5 6 6 6 11 1 17 -2 13 -5z m7601
-321 l2 -223 -385 0 -386 0 1 219 c1 120 4 221 7 224 3 3 174 5 382 4 l376 -2
3 -222z m-856 145 c1 -71 1 -72 8 -23 6 47 7 45 11 -35 4 -106 3 -136 -7 -230
-7 -59 -13 -75 -26 -78 -17 -3 -18 12 -18 217 0 190 2 221 15 221 12 0 15 -15
17 -72z m933 50 c10 -40 1 -408 -10 -411 -6 -1 -11 77 -13 216 -1 140 1 217 8
217 5 0 12 -10 15 -22z m-1191 -9 c27 -21 34 -60 17 -88 -7 -10 -9 -5 -8 18 2
40 -21 52 -70 39 -42 -11 -53 -32 -55 -112 -1 -44 -6 -66 -14 -66 -16 0 -24
33 -24 98 0 56 19 104 47 121 29 17 79 12 107 -10z m-4521 -36 c-13 -2 -35 -2
-50 0 -16 2 -5 4 22 4 28 0 40 -2 28 -4z m-118 -13 c4 -6 11 -8 16 -5 5 4 9 0
9 -8 0 -10 -7 -13 -20 -10 -11 3 -17 9 -15 14 3 4 -12 10 -32 12 l-38 4 37 1
c20 1 40 -3 43 -8z m2532 4 c-3 -3 -12 -4 -19 -1 -8 3 -5 6 6 6 11 1 17 -2 13
-5z m213 -1 c-51 -9 -42 -22 14 -22 31 1 60 -2 63 -5 4 -3 -21 -6 -54 -6 -42
0 -64 5 -73 15 -7 8 -18 15 -24 15 -6 0 -5 -4 3 -9 24 -15 -14 -20 -163 -20
-99 0 -136 3 -129 10 7 7 60 11 134 11 76 0 114 3 99 8 -16 5 7 8 65 8 50 -1
79 -3 65 -5z m3107 -60 c-2 -16 -4 -5 -4 22 0 28 2 40 4 28 2 -13 2 -35 0 -50z
m-5916 37 c20 -8 13 -9 -36 -7 l-60 2 -3 -120 c-2 -104 -5 -122 -23 -141 -18
-19 -28 -21 -84 -16 -49 3 -70 1 -89 -12 -14 -9 -28 -16 -31 -16 -3 0 -5 73
-5 163 l0 162 153 -2 c84 -1 164 -7 178 -13z m1329 9 c0 -6 -33 -10 -87 -9
-49 1 -200 0 -338 -2 l-250 -3 -3 -278 c-2 -230 -5 -282 -18 -302 -14 -22 -17
-22 -44 -8 l-30 14 0 285 0 284 -65 0 c-36 0 -65 4 -65 9 0 5 52 9 116 10 64
0 119 2 121 5 10 10 663 5 663 -5z m192 -4 c4 -5 8 -124 8 -264 l0 -254 -22
20 c-47 42 -101 56 -126 31 -10 -10 -11 37 -6 218 l6 231 -23 7 c-21 6 -22 8
-7 14 27 11 162 8 170 -3z m2525 -336 c2 -275 0 -340 -10 -323 -19 32 -146
182 -158 186 -7 2 -10 82 -10 226 0 199 -2 223 -18 231 -10 6 -145 7 -324 4
-243 -4 -307 -3 -307 7 0 9 11 11 38 7 20 -2 48 -1 62 3 14 5 183 7 375 6
l350 -3 2 -344z m797 341 c22 -8 26 -16 26 -47 -1 -36 -1 -37 -16 -18 -8 11
-19 19 -24 18 -5 -2 -21 2 -35 7 -14 5 -25 6 -25 1 0 -5 -7 -11 -15 -14 -12
-5 -12 0 2 28 18 37 39 44 87 25z m-4654 -10 c0 -5 -10 -10 -22 -10 -19 0 -20
2 -8 10 19 13 30 13 30 0z m160 -1 c0 -5 -35 -8 -77 -7 -51 0 -71 4 -58 9 25
10 135 8 135 -2z m47 5 c-3 -3 -12 -4 -19 -1 -8 3 -5 6 6 6 11 1 17 -2 13 -5z
m1911 -218 c2 -227 -1 -286 -19 -286 -5 0 -30 20 -55 45 -25 24 -54 47 -65 50
-18 6 -19 17 -19 211 l0 205 78 -2 77 -2 3 -221z m121 208 c10 -9 -56 -3 -69
7 -11 7 -4 8 25 3 22 -4 42 -8 44 -10z m638 10 c-3 -3 -12 -4 -19 -1 -8 3 -5
6 6 6 11 1 17 -2 13 -5z m123 -3 l-25 -7 -1 -259 c0 -143 -4 -260 -8 -259 -5
1 -24 13 -42 28 l-34 27 0 234 0 234 48 4 c80 6 90 6 62 -2z m1196 -36 c64 -9
50 -15 -18 -8 -55 5 -57 7 -46 27 10 18 13 18 16 5 2 -11 18 -19 48 -24z
m-4339 -40 c2 0 6 -41 9 -89 l7 -87 -24 6 c-13 3 -36 7 -51 8 -15 1 -28 5 -28
10 0 4 0 43 0 87 l0 80 43 -6 c23 -4 43 -8 44 -9z m2744 -158 c1 -89 3 -183 4
-210 l2 -47 -34 21 c-38 24 -80 27 -114 9 -21 -12 -22 -11 -16 26 4 22 7 113
7 204 l0 165 75 -3 75 -4 1 -161z m1677 145 c28 -18 29 -37 1 -21 -26 13 -93
3 -83 -13 4 -7 2 -8 -5 -4 -7 5 -20 -3 -32 -18 -11 -15 -25 -24 -30 -21 -15
10 19 64 52 84 32 20 58 18 97 -7z m-4278 -107 c0 -120 -1 -125 -21 -125 -11
0 -29 5 -40 10 -17 10 -19 22 -19 125 l0 115 40 0 40 0 0 -125z m183 -17 c4
-79 7 -174 7 -211 l0 -68 -29 21 c-17 11 -33 31 -36 43 -4 12 -21 40 -38 61
-28 36 -31 46 -33 125 -2 47 0 105 3 129 l5 42 58 0 57 0 6 -142z m132 -60 c4
-112 5 -225 3 -252 -3 -44 -6 -50 -32 -59 -21 -7 -30 -6 -37 4 -5 8 -9 125 -9
262 l0 247 34 0 34 0 7 -202z m435 17 c1 -171 -1 -185 -17 -185 -10 0 -31 -7
-47 -15 -20 -11 -33 -12 -40 -5 -22 22 -68 11 -102 -26 l-34 -35 0 225 0 226
119 0 119 0 2 -185z m380 -40 c0 -209 -1 -225 -19 -234 -10 -6 -24 -24 -31
-41 -9 -23 -19 -30 -39 -30 -14 0 -43 -3 -63 -6 -30 -5 -38 -3 -38 8 0 22 -79
108 -99 108 -33 0 -41 40 -43 233 l-3 187 168 0 167 0 0 -225z m1130 -25 c0
-137 -3 -250 -7 -250 -5 0 -25 5 -45 11 l-38 10 0 239 0 240 45 0 45 0 0 -250z
m140 44 l0 -206 -32 -44 c-17 -24 -36 -43 -42 -41 -7 2 -11 85 -12 250 l0 247
43 0 43 0 0 -206z m434 154 c3 -29 6 -110 6 -179 l0 -127 -56 -7 c-40 -5 -64
-14 -88 -36 -19 -16 -36 -29 -40 -29 -3 0 -6 97 -6 215 l0 215 89 0 88 0 7
-52z m276 -218 c0 -148 -2 -270 -5 -270 -3 0 -21 7 -40 14 l-35 15 0 255 0
256 40 0 40 0 0 -270z m142 78 l3 -193 23 42 c20 38 22 56 22 193 l0 150 159
0 158 0 5 -172 c3 -95 4 -174 3 -176 -2 -2 -29 4 -60 14 -132 38 -218 -4 -368
-176 l-48 -55 5 34 c3 18 6 145 6 282 l0 249 45 0 45 0 2 -192z m-4637 163
c47 -8 -349 -21 -667 -21 -141 0 -208 -3 -208 -11 0 -6 -7 -3 -16 6 -9 9 -23
14 -31 11 -8 -3 -19 -6 -25 -6 -7 0 -8 -14 -4 -37 4 -21 7 -72 6 -114 -1 -58
3 -80 15 -93 9 -9 12 -16 6 -16 -7 0 -11 -38 -11 -109 l0 -109 -81 -7 c-64 -6
-83 -4 -90 6 -5 8 -9 68 -9 134 l0 120 45 1 c67 1 95 31 95 101 0 67 -20 99
-71 115 -48 14 -39 28 23 39 52 10 967 1 1023 -10z m3005 -35 c0 -30 3 -62 7
-72 6 -16 -1 -16 -88 -11 -52 4 -95 7 -96 7 -2 0 -3 5 -3 10 0 6 8 10 17 10
15 0 14 2 -3 14 -19 15 -19 15 1 30 11 8 16 16 10 17 -5 1 4 5 20 9 26 7 22 8
-22 9 -29 0 -53 5 -53 10 0 14 27 19 123 20 l87 1 0 -54z m136 12 c4 4 4 -6 1
-22 -3 -17 -1 -40 4 -53 5 -14 5 -23 -1 -23 -6 0 -10 6 -10 13 0 8 -4 7 -10
-3 -8 -12 -10 -10 -11 10 -1 22 -2 23 -7 5 -4 -12 -17 -21 -32 -23 -20 -2 -22
-1 -9 8 13 7 15 20 12 54 l-6 45 31 -8 c17 -5 34 -6 38 -3z m-2616 -36 c34
-25 60 -79 59 -122 0 -31 -1 -33 -9 -12 -16 40 -73 102 -93 102 -21 0 -27 -32
-27 -142 0 -96 -10 -124 -26 -70 -9 32 -9 69 1 133 7 46 7 47 -19 42 -14 -3
-26 -12 -26 -19 0 -8 -5 -14 -10 -14 -6 0 -4 14 4 35 19 44 14 45 -13 1 -12
-19 -21 -50 -21 -74 0 -37 3 -41 28 -45 19 -3 16 -4 -14 -6 -39 -1 -42 1 -48
30 -8 40 8 98 36 134 43 55 123 67 178 27z m2737 -49 c-2 -16 -4 -3 -4 27 0
30 2 43 4 28 2 -16 2 -40 0 -55z m-447 52 c0 -8 -2 -15 -4 -15 -2 0 -6 7 -10
15 -3 8 -1 15 4 15 6 0 10 -7 10 -15z m427 -47 c-2 -13 -4 -3 -4 22 0 25 2 35
4 23 2 -13 2 -33 0 -45z m-3522 16 c89 -46 99 -64 103 -194 4 -96 2 -115 -17
-154 -16 -31 -31 -48 -53 -55 -20 -7 -146 -11 -344 -11 l-314 0 0 223 c0 188
2 218 13 197 9 -17 10 -27 3 -32 -7 -5 -7 -8 2 -8 9 0 12 -31 13 -117 2 -178
15 -190 21 -20 3 95 9 152 17 160 7 7 42 15 79 18 l67 6 -82 1 c-52 1 -83 6
-83 13 0 7 79 10 258 7 l257 -3 60 -31z m-767 6 c39 -36 20 -111 -26 -109 -11
0 -12 2 -4 6 7 2 12 22 12 44 0 38 -2 40 -27 37 -34 -4 -43 -40 -17 -69 9 -10
13 -19 8 -19 -12 0 -44 53 -44 74 0 20 39 56 60 56 9 0 26 -9 38 -20z m1150 4
c27 -18 30 -39 3 -23 -28 18 -49 4 -61 -42 -9 -31 -14 -39 -21 -28 -16 25 -10
59 16 84 28 29 33 30 63 9z m7021 -106 c1 -10 -3 -18 -9 -18 -6 0 -9 25 -9 58
1 56 1 57 10 17 4 -22 8 -48 8 -57z m-4312 60 c-3 -8 -6 -5 -6 6 -1 11 2 17 5
13 3 -3 4 -12 1 -19z m-2701 -25 c-10 -10 -19 5 -10 18 6 11 8 11 12 0 2 -7 1
-15 -2 -18z m3156 -84 c3 -58 2 -61 -29 -85 l-33 -25 -59 27 c-58 27 -82 58
-65 85 10 17 -17 39 -47 39 -28 0 -29 -1 -29 -54 l0 -53 -47 -7 c-27 -3 -67
-17 -91 -31 -23 -13 -40 -20 -37 -15 3 5 1 11 -5 15 -5 3 -10 -3 -10 -14 0
-11 -4 -23 -10 -26 -6 -4 -10 32 -10 99 l0 106 234 0 234 0 4 -61z m2356 42
c12 -10 22 -25 22 -34 0 -27 -85 -32 -129 -8 l-25 14 30 23 c35 29 73 31 102
5z m-4397 -8 c44 -26 69 -114 28 -105 -63 16 -87 10 -133 -33 -20 -19 -32 -23
-39 -16 -17 17 -49 13 -97 -15 -38 -22 -154 -54 -196 -54 -19 0 -18 54 2 74 8
9 26 19 39 22 14 3 28 17 34 35 12 35 65 69 107 69 17 0 48 -11 67 -25 l37
-24 11 22 c34 66 83 84 140 50z m-841 -13 c0 -5 -8 -10 -17 -10 -15 0 -16 2
-3 10 19 12 20 12 20 0z m-119 -21 c25 -25 21 -38 -19 -64 -17 -11 -29 -26
-27 -32 2 -7 2 -13 -2 -13 -10 0 -32 34 -33 52 0 11 -6 16 -19 13 -18 -3 -19
-1 -10 22 15 41 18 43 55 43 21 0 42 -8 55 -21z m-361 -129 c0 -54 -4 -101 -9
-104 -5 -3 -10 43 -10 105 -1 74 2 108 9 104 6 -3 10 -48 10 -105z m1505 84
c26 -17 49 -48 59 -82 l8 -23 -34 21 c-39 24 -69 25 -107 5 -16 -8 -31 -11
-35 -8 -10 11 -7 62 6 83 16 25 68 27 103 4z m-1009 -21 c20 -27 18 -30 -33
-42 -27 -7 -59 -19 -71 -27 -13 -9 -26 -13 -29 -11 -11 11 10 68 30 82 30 21
87 19 103 -2z m347 -13 c-7 -25 -23 -36 -23 -16 0 11 -9 16 -27 16 -35 0 -120
-26 -142 -42 -10 -8 -9 -4 3 10 23 26 94 50 153 51 36 1 41 -1 36 -19z m6522
-5 c-33 -12 -140 -15 -585 -16 -300 -1 -592 -4 -650 -8 -58 -4 -106 -6 -108
-5 -2 1 1 12 8 23 11 21 11 21 693 21 604 -1 677 -3 642 -15z m-1491 -11 c9
-8 16 -20 16 -25 0 -13 -68 -41 -80 -34 -6 4 -10 1 -10 -6 0 -7 -8 -5 -20 6
-11 10 -20 25 -20 33 0 38 84 57 114 26z m-4542 -34 c37 -33 32 -42 -30 -59
-61 -18 -82 7 -50 57 25 40 39 40 80 2z m2122 5 c11 -8 16 -20 12 -30 -5 -14
-15 -15 -53 -10 -57 7 -58 8 -43 34 13 25 55 28 84 6z m1580 1 c40 -17 54 -35
35 -47 -22 -14 -56 -10 -63 6 -8 21 -40 19 -61 -5 -21 -24 -44 -25 -71 -6 -18
14 -18 16 -3 31 32 32 112 42 163 21z m-1797 -20 l28 -24 -29 -12 c-22 -8 -37
-8 -58 1 -32 13 -32 13 -18 40 14 26 43 24 77 -5z m-149 -7 c3 -19 -49 -44
-73 -35 -15 6 -21 37 -8 50 14 13 78 2 81 -15z m-1902 -24 l26 -26 -49 -24
c-26 -14 -49 -25 -50 -25 -2 0 -11 17 -22 39 l-20 38 22 11 c37 18 67 13 93
-13z m326 8 c28 -25 22 -48 -18 -69 l-36 -19 -19 24 c-22 27 -24 52 -7 69 17
17 58 15 80 -5z m2819 -6 c19 -12 35 -31 37 -41 4 -17 2 -17 -18 2 -19 17 -27
19 -44 10 -12 -6 -23 -11 -26 -10 -13 5 -70 -11 -70 -20 0 -5 -4 -6 -10 -3 -5
3 -10 1 -10 -6 0 -10 -3 -10 -12 -1 -29 29 37 90 98 92 12 0 36 -10 55 -23z
m1682 -9 c10 -12 16 -26 14 -32 -4 -11 -98 -13 -115 -2 -17 10 -23 -11 -7 -24
8 -7 15 -18 15 -24 -1 -6 -12 2 -25 18 -27 34 -21 56 23 81 33 18 71 11 95
-17z m-3744 0 c26 -17 31 -24 19 -26 -9 -2 -26 2 -37 7 -11 6 -31 11 -45 11
-25 0 -33 10 -19 23 13 13 46 7 82 -15z m501 -14 l25 -24 -36 0 c-88 0 -126
24 -76 48 28 13 56 6 87 -24z m1278 4 c26 -25 30 -47 5 -27 -15 12 -16 12 -10
-4 4 -11 3 -16 -3 -12 -6 3 -16 3 -22 -2 -7 -4 -29 -8 -48 -9 -73 -2 -89 15
-47 53 42 38 84 39 125 1z m826 0 l25 -33 -62 -17 c-88 -24 -103 -11 -50 41
22 23 45 41 51 41 6 0 22 -15 36 -32z m883 4 c18 -24 16 -32 -9 -34 -42 -2
-47 -3 -53 -10 -4 -4 -13 -4 -20 -2 -10 4 -12 -1 -9 -18 l6 -23 -21 24 c-26
28 -26 43 -3 63 36 32 84 32 109 0z m-4124 -9 c30 -32 61 -99 52 -113 -15 -25
-41 -6 -67 49 -42 89 -36 116 15 64z m521 6 c46 -27 47 -42 1 -23 -52 21 -66
18 -109 -27 -27 -29 -41 -38 -49 -30 -6 6 -9 12 -6 14 2 1 25 21 51 45 26 23
54 42 62 42 8 0 31 -9 50 -21z m828 4 c26 -23 22 -39 -11 -53 -22 -9 -34 -9
-50 0 -28 14 -26 24 5 49 32 25 33 25 56 4z m539 1 c11 -14 10 -18 -6 -30 -11
-8 -26 -12 -33 -9 -8 3 -18 5 -23 5 -15 0 -10 22 9 36 23 18 37 17 53 -2z
m1473 10 c20 -8 21 -48 1 -64 -12 -10 -20 -9 -40 4 -29 19 -32 41 -7 55 20 12
25 13 46 5z m153 -20 c10 -14 31 -40 46 -57 42 -47 73 -90 80 -109 5 -15 1
-18 -24 -18 -28 0 -31 2 -25 25 5 20 2 26 -19 31 -24 6 -55 -9 -55 -26 0 -4
14 -10 30 -13 17 -4 30 -11 30 -17 0 -5 -13 -10 -30 -10 -19 0 -30 5 -30 14 0
7 -13 19 -30 26 -38 16 -56 38 -43 51 6 6 19 6 35 0 19 -7 31 -6 47 5 44 32
17 58 -49 48 -30 -5 -37 -10 -33 -25 7 -27 -22 -35 -53 -14 -29 19 -27 37 6
45 23 5 33 18 44 53 8 26 52 21 73 -9z m1760 -25 l10 -50 -123 3 c-146 4 -151
-9 -7 -18 85 -6 99 -9 88 -20 -11 -11 -78 -14 -334 -14 l-321 0 -30 28 c-22
20 -32 39 -36 75 l-7 47 375 0 375 0 10 -51z m-3749 16 c10 -21 8 -27 -15 -44
l-25 -21 -19 24 c-22 28 -23 32 -6 51 19 23 52 18 65 -10z m168 4 c18 -20 18
-21 -1 -35 -25 -18 -59 -18 -75 1 -10 13 -10 19 5 35 23 26 47 25 71 -1z
m-2581 -8 c0 -8 -9 -15 -20 -17 -11 -2 -21 -7 -23 -13 -2 -5 -10 -7 -18 -4 -8
3 -21 0 -29 -7 -12 -10 -15 -10 -15 0 0 10 -3 10 -15 0 -8 -7 -13 -16 -10 -20
3 -4 -2 -11 -11 -14 -10 -4 -13 -2 -8 6 5 8 1 9 -11 4 -18 -6 -18 -6 -2 12 9
10 17 22 17 27 0 5 8 17 17 27 13 15 28 18 72 16 40 -2 56 -7 56 -17z m311
-21 c34 -51 28 -90 -14 -90 -20 1 -35 12 -61 47 l-34 46 23 19 c34 28 57 22
86 -22z m335 -2 c20 -22 29 -41 27 -58 -3 -22 -8 -25 -52 -28 l-48 -3 6 28 c4
18 3 23 -2 15 -7 -11 -10 -10 -14 5 -3 10 -9 26 -13 35 -5 13 -1 20 16 27 38
16 49 13 80 -21z m-491 7 c24 -13 70 -70 70 -89 0 -3 -40 -6 -90 -6 -78 0 -90
2 -92 18 -7 79 42 113 112 77z m1450 -37 c0 -5 -9 -4 -20 2 -11 6 -20 18 -20
27 0 14 2 14 20 -2 11 -10 20 -22 20 -27z m1254 36 c9 -3 16 -17 16 -30 0 -19
-5 -24 -25 -24 -14 0 -25 -2 -25 -4 0 -16 15 -36 27 -36 8 0 11 -5 7 -12 -9
-14 -47 30 -40 47 2 7 -7 18 -21 24 -47 22 10 54 61 35z m-3047 -36 c-3 -7 -5
-2 -5 12 0 14 2 19 5 13 2 -7 2 -19 0 -25z m697 1 c43 -51 36 -59 -49 -59 -66
0 -75 2 -75 18 0 32 44 71 82 72 9 0 28 -14 42 -31z m1426 26 c0 -3 -14 -21
-32 -40 -25 -28 -34 -32 -45 -23 -24 19 -11 52 22 59 41 9 55 10 55 4z m394
-27 c14 -18 23 -34 21 -36 -10 -11 -75 -18 -89 -10 -22 12 -20 27 6 55 28 30
32 29 62 -9z m1347 22 c21 -12 26 -40 7 -40 -14 0 -48 30 -48 42 0 11 17 10
41 -2z m520 -6 c12 -15 10 -19 -11 -33 -13 -9 -35 -26 -48 -38 -13 -12 -32
-25 -42 -28 -10 -3 -21 -12 -24 -20 -2 -7 -15 -19 -27 -25 -20 -11 -21 -10
-15 13 6 27 -10 37 -47 29 -14 -4 -17 -11 -12 -29 5 -22 3 -23 -22 -17 -16 4
-30 8 -31 10 -8 6 11 42 42 79 l34 40 34 -32 c37 -36 48 -40 48 -19 0 7 12 22
28 32 15 9 33 26 40 36 16 22 35 23 53 2z m-2027 -23 c15 -28 15 -29 -9 -35
-14 -4 -35 -1 -46 5 -15 8 -19 8 -15 0 5 -7 1 -9 -8 -5 -21 8 -20 41 2 53 32
19 61 13 76 -18z m316 4 c26 -27 21 -40 -20 -50 -15 -3 -33 0 -44 8 -19 14
-19 14 0 40 24 33 35 33 64 2z m176 4 c18 -20 18 -21 -1 -35 -21 -15 -35 -17
-59 -8 -20 8 -20 23 1 46 21 23 36 23 59 -3z m854 0 c0 -5 -4 -9 -10 -9 -5 0
-10 7 -10 16 0 8 5 12 10 9 6 -3 10 -10 10 -16z m-2681 -15 c12 -15 21 -31 21
-35 0 -5 -27 -9 -60 -9 -56 0 -60 1 -60 23 0 15 9 28 23 35 36 17 54 14 76
-14z m4287 12 c27 -20 14 -28 -42 -24 l-49 3 30 17 c37 21 37 21 61 4z m212
-3 c2 -9 -7 -13 -28 -13 -28 0 -31 2 -20 15 15 18 41 16 48 -2z m-441 -10 c3
-7 -10 -15 -32 -19 -43 -8 -52 -2 -29 20 18 19 55 18 61 -1z m-5199 -26 c-12
-4 -26 -3 -31 2 -7 7 -2 13 14 19 16 6 26 6 31 -2 4 -6 -2 -14 -14 -19z m1566
7 c15 -21 16 -28 5 -35 -9 -5 -19 1 -31 18 -29 45 -5 59 26 17z m1901 15 c22
-6 48 -18 58 -27 19 -17 23 -43 5 -39 -7 1 -12 -4 -13 -12 0 -8 -6 -16 -14
-19 -9 -3 -12 0 -8 11 4 11 -5 18 -34 25 -23 6 -41 6 -45 1 -3 -5 -10 -7 -15
-4 -18 12 -31 -6 -17 -23 11 -14 10 -15 -6 -9 -12 5 -22 3 -27 -4 -8 -13 -39
-5 -39 10 0 9 6 16 42 47 7 6 21 21 30 33 20 24 28 25 83 10z m272 -9 c30 -18
60 -57 50 -66 -2 -3 -14 -7 -27 -9 -15 -3 -20 0 -17 9 12 30 -101 30 -133 1
-22 -20 -30 -19 -30 5 0 25 43 67 73 73 42 8 52 7 84 -13z m-3900 -6 c-3 -3
-12 -4 -19 -1 -8 3 -5 6 6 6 11 1 17 -2 13 -5z m1581 -10 l37 -17 -53 -11
c-45 -9 -56 -16 -67 -41 l-13 -30 -1 47 c-1 46 4 52 57 67 1 1 19 -6 40 -15z
m2660 0 c12 -8 22 -20 22 -27 0 -7 -6 -5 -16 5 -11 11 -29 14 -62 12 l-47 -4
30 15 c39 18 46 18 73 -1z m503 0 c28 -34 -43 -54 -76 -22 -7 6 -3 14 9 24 26
18 50 18 67 -2z m-2476 -4 c3 -5 -1 -10 -10 -10 -9 0 -13 5 -10 10 3 6 8 10
10 10 2 0 7 -4 10 -10z m1129 -45 l-47 -54 -14 25 c-16 32 -16 34 -2 34 5 0 7
-4 4 -10 -3 -5 3 -10 15 -10 17 0 20 4 15 23 -5 16 -4 18 3 8 9 -12 13 -12 26
2 9 8 16 20 16 26 0 6 7 11 16 11 10 0 -1 -19 -32 -55z m-1164 35 c0 -5 -5
-10 -11 -10 -5 0 -7 5 -4 10 3 6 8 10 11 10 2 0 4 -4 4 -10z m303 -1 c12 -7
25 -17 29 -23 10 -15 -10 -36 -28 -29 -8 3 -14 0 -14 -7 0 -7 -6 -10 -14 -7
-7 3 -26 -1 -41 -9 -15 -8 -32 -14 -37 -14 -13 0 0 38 24 73 21 29 46 34 81
16z m151 -41 c-15 -4 -32 -4 -37 -1 -6 3 -7 1 -3 -5 5 -8 0 -12 -13 -12 -11 0
-23 -4 -26 -10 -10 -17 -25 -11 -25 9 0 17 33 47 70 62 9 4 25 -2 38 -14 l23
-22 -27 -7z m378 32 c14 -11 28 -29 31 -40 5 -18 0 -20 -53 -20 -49 0 -60 3
-65 19 -8 27 15 61 41 61 12 0 33 -9 46 -20z m164 -3 l27 -24 -21 -21 c-28
-28 -73 -28 -97 -2 -18 20 -18 21 5 45 29 31 51 32 86 2z m1429 -17 c22 -24
18 -29 -29 -37 -31 -5 -36 -3 -36 14 0 21 18 43 35 43 7 0 20 -9 30 -20z
m-4302 1 c44 -1 77 -5 77 -11 0 -5 -16 -10 -35 -10 -31 0 -36 -4 -53 -42 -10
-24 -35 -57 -55 -75 -34 -30 -43 -32 -100 -24 -5 0 -6 5 -3 9 3 5 -1 9 -9 9
-8 0 -15 -9 -15 -19 0 -15 8 -18 43 -18 l42 -1 -35 -16 c-43 -19 -180 -26
-234 -12 -63 17 -119 91 -133 174 l-5 34 68 4 c38 2 137 2 219 1 83 -2 185 -3
228 -3z m1752 -18 c-25 -17 -65 -17 -65 1 0 9 12 16 33 18 43 5 54 -2 32 -19z
m712 11 c8 -22 -22 -44 -59 -44 -34 0 -37 22 -6 44 29 21 57 20 65 0z m1473
-9 c0 -8 -3 -16 -7 -18 -5 -3 -8 5 -8 18 0 13 3 21 8 18 4 -2 7 -10 7 -18z
m509 8 c7 -14 4 -20 -21 -30 -52 -22 -63 -16 -31 17 32 35 39 36 52 13z m1055
8 c3 -5 -11 -12 -32 -15 -55 -10 -430 -24 -490 -18 -43 4 -52 2 -52 -11 0 -10
15 -19 43 -26 l42 -10 -47 2 c-42 2 -47 0 -51 -21 -4 -22 25 -62 45 -62 14 0
8 18 -8 24 -9 4 -14 9 -10 13 3 3 15 -2 26 -12 16 -14 17 -20 8 -26 -19 -12 0
-26 51 -38 32 -7 62 -6 113 5 39 8 73 13 75 10 3 -3 -12 -8 -33 -12 -22 -3
-45 -11 -52 -17 -15 -12 -102 -1 -148 18 -47 19 -115 84 -135 130 -37 81 -60
75 315 75 184 0 337 -4 340 -9z m-6387 -8 c177 -3 320 -9 318 -13 -3 -4 -134
-10 -292 -14 -363 -8 -655 -18 -651 -22 2 -1 127 -6 278 -10 151 -3 279 -10
284 -14 10 -10 -18 -52 -63 -94 l-31 -29 -235 -3 c-224 -2 -236 -1 -246 17 -5
11 -14 17 -19 14 -6 -3 -7 1 -4 10 4 10 2 15 -6 13 -19 -5 -86 132 -72 146 7
8 344 7 739 -1z m2233 -1 c0 -14 -23 -32 -42 -32 -18 0 -25 20 -11 33 9 10 53
9 53 -1z m124 -1 c8 -13 -21 -34 -39 -27 -20 7 -8 36 15 36 11 0 21 -4 24 -9z
m125 0 c18 -11 5 -31 -20 -31 -12 0 -19 7 -19 20 0 21 16 26 39 11z m989 -18
c3 -21 -1 -23 -37 -23 -44 0 -56 20 -23 39 27 17 57 9 60 -16z m-2069 -9 c2
-2 -36 -3 -85 -2 -85 1 -86 2 -29 7 58 6 105 4 114 -5z m6054 6 c79 0 53 -16
-30 -18 -43 -1 -124 -5 -181 -8 l-103 -6 -22 -44 -21 -44 -80 0 c-45 0 -139
-3 -211 -7 l-130 -8 200 -11 c153 -8 178 -11 105 -12 -52 -1 -140 -5 -195 -10
l-100 -7 130 -6 c128 -5 127 -5 -42 -5 -94 1 -169 -3 -166 -7 3 -5 -3 -7 -12
-5 -16 3 -115 177 -115 202 0 6 168 7 463 3 254 -4 483 -7 510 -7z m-5995 -7
c-10 -2 -26 -2 -35 0 -10 3 -2 5 17 5 19 0 27 -2 18 -5z m155 0 c-24 -2 -62
-2 -85 0 -24 2 -5 4 42 4 47 0 66 -2 43 -4z m4456 -27 c8 -10 31 -13 76 -11
40 1 66 -2 68 -9 3 -8 -18 -10 -69 -8 -41 2 -74 8 -74 13 0 5 -3 8 -7 7 -5 0
-15 2 -23 5 -8 3 -28 8 -45 10 -21 3 -16 4 16 6 29 0 51 -4 58 -13z m-4159
-21 c0 -12 -19 -15 -114 -15 -66 0 -117 -4 -121 -10 -4 -6 -87 -10 -217 -10
-116 0 -209 -2 -206 -5 5 -5 112 -16 162 -16 15 0 41 -6 57 -14 15 -8 38 -16
51 -16 19 -1 18 -3 -7 -9 -18 -5 -23 -8 -11 -9 25 -1 12 -14 -22 -21 -40 -8
-263 -6 -294 3 -46 12 -128 97 -128 132 0 3 191 5 425 5 371 0 425 -2 425 -15z
m2699 -1 c11 -11 -14 -16 -103 -21 -52 -3 -93 -10 -90 -14 3 -5 -4 -9 -15 -9
-12 0 -21 6 -21 13 0 8 -2 9 -8 1 -4 -7 -16 -14 -27 -17 -11 -2 2 -5 29 -6
l50 -1 -29 -30 c-16 -16 -35 -30 -42 -30 -7 0 -13 -4 -13 -9 0 -6 -49 -11
-109 -13 -60 -2 -108 -1 -106 2 2 3 -18 5 -43 5 -53 0 -87 20 -121 72 -23 36
-27 59 -10 65 15 5 653 -3 658 -8z m-1874 -9 c0 -6 -40 -11 -94 -13 -52 -1
-100 -7 -107 -13 -7 -6 -35 -11 -63 -11 -27 -1 -48 -5 -45 -10 3 -4 -7 -8 -23
-9 l-28 -1 25 -8 c21 -7 22 -8 5 -10 -17 -2 -16 -3 5 -10 14 -4 18 -9 10 -10
-8 -1 -4 -5 10 -9 14 -4 -36 -8 -110 -9 -74 -1 -143 1 -153 4 -23 7 -77 81
-77 106 0 17 14 18 323 16 206 -2 322 -7 322 -13z m2689 7 c128 -1 167 -5 159
-13 -7 -7 -72 -15 -155 -20 -155 -9 -201 -16 -193 -29 3 -5 -7 -10 -22 -13
l-28 -4 33 -8 c74 -18 21 -44 -95 -47 -138 -3 -204 16 -241 69 -20 30 -33 59
-27 65 4 4 324 4 569 0z m-777 -8 c-3 -3 -12 -4 -19 -1 -8 3 -5 6 6 6 11 1 17
-2 13 -5z m1218 -4 c-3 -5 -1 -10 5 -10 6 0 8 -5 4 -11 -3 -6 -9 -7 -13 -2 -3
5 -17 14 -31 20 -25 12 -25 12 8 12 20 1 31 -3 27 -9z m164 -4 c-12 -10 -59
-15 -59 -6 0 5 14 10 32 10 17 0 29 -2 27 -4z m143 -15 c-38 -20 -122 -17
-122 5 0 11 17 14 77 13 l77 -1 -32 -17z m-2386 -16 c-11 -8 -41 -16 -68 -16
-26 -1 -52 -3 -58 -4 -5 -1 -155 -3 -332 -4 -177 0 -319 -3 -317 -6 3 -2 79
-5 169 -6 234 -2 317 -9 297 -24 -9 -7 -14 -14 -11 -18 9 -8 -181 -22 -289
-21 -84 2 -104 5 -150 28 -28 15 -62 40 -75 56 l-24 30 439 0 c387 -1 436 -2
419 -15z m2396 -6 c-18 -12 -35 -19 -38 -16 -3 3 7 12 23 21 42 23 53 19 15
-5z m-3692 -14 c-7 -8 -17 -15 -23 -15 -6 0 -2 7 9 15 25 19 30 19 14 0z
m3538 -20 c2 -2 -11 -5 -28 -7 -21 -3 -30 0 -30 9 0 10 8 11 28 7 15 -4 28 -8
30 -9z m1434 -146 c111 -24 214 -99 261 -190 15 -30 20 -43 10 -29 -45 62 -90
102 -147 130 -90 44 -158 54 -326 46 -80 -4 -203 -6 -275 -4 -71 2 -209 2
-305 1 -96 -1 -294 -1 -440 0 -326 2 -1002 -1 -1165 -7 -76 -2 -94 -1 -50 3
39 4 -704 5 -1650 4 -946 -1 -1808 -2 -1915 -2 -939 2 -2166 -8 -2200 -18 -97
-28 -193 -112 -246 -216 -36 -71 -36 -71 -30 -29 13 87 81 188 167 248 23 15
71 38 108 51 l66 22 4042 1 c2956 0 4056 -3 4095 -11z m-3349 -56 c-13 -2 -33
-2 -45 0 -13 2 -3 4 22 4 25 0 35 -2 23 -4z m240 0 c-13 -2 -33 -2 -45 0 -13
2 -3 4 22 4 25 0 35 -2 23 -4z m230 0 c-18 -2 -48 -2 -65 0 -18 2 -4 4 32 4
36 0 50 -2 33 -4z m2960 -95 c32 -15 76 -44 98 -65 53 -51 121 -190 127 -261
6 -73 -15 -67 -43 14 -11 32 -29 74 -40 92 -20 33 -41 38 -38 7 1 -12 -2 -14
-10 -6 -7 7 -6 15 3 26 11 13 6 21 -30 55 -23 22 -44 40 -47 40 -7 0 8 -23 30
-47 11 -13 16 -23 10 -23 -6 0 -17 7 -24 17 -8 9 -38 27 -68 40 l-54 24 -4073
0 c-3746 -1 -4077 -2 -4111 -17 -21 -9 -51 -18 -67 -20 -16 -2 -39 -15 -52
-29 -28 -30 -39 -32 -24 -4 7 11 9 23 6 27 -3 3 -6 1 -6 -5 0 -6 -15 -30 -33
-54 -19 -24 -40 -62 -47 -84 -7 -22 -15 -44 -19 -50 -3 -5 -12 -35 -21 -65
-19 -72 -21 -427 -2 -439 9 -6 10 -30 3 -102 -10 -106 -11 -489 -1 -419 5 34
7 22 8 -53 1 -58 -2 -96 -7 -92 -14 8 -23 -109 -17 -215 12 -200 13 -302 2
-283 -8 12 -12 286 -14 851 -2 722 -1 842 13 893 16 63 42 108 63 109 6 0 12
6 12 13 0 17 75 88 122 116 20 12 56 26 80 30 24 5 1881 8 4128 7 l4085 -1 58
-27z m-3998 -353 c89 -23 211 -86 287 -149 100 -83 101 -84 21 -152 -38 -31
-99 -86 -137 -121 l-69 -64 -26 24 c-73 67 -175 107 -271 107 -67 0 -161 -28
-218 -64 -36 -23 -109 -96 -96 -96 4 0 0 -8 -9 -17 -15 -18 -57 -119 -57 -138
0 -5 14 18 30 53 38 81 117 164 189 199 50 25 67 28 161 28 95 0 111 -3 162
-28 31 -15 75 -46 98 -68 l41 -40 31 28 c17 15 42 40 56 56 14 15 31 27 39 27
7 0 16 7 19 15 4 8 12 15 20 15 8 0 14 5 14 10 0 6 5 10 12 10 6 0 4 -8 -6
-19 -10 -10 -14 -21 -9 -23 4 -3 3 -4 -4 -2 -13 3 -45 -30 -38 -39 3 -4 2 -5
-2 -2 -9 7 -34 -16 -27 -26 3 -5 0 -8 -8 -7 -7 2 -12 -3 -10 -10 1 -8 -2 -11
-7 -8 -5 3 -11 -3 -14 -14 -3 -11 -10 -20 -17 -20 -6 0 -8 5 -5 10 10 16 -4
11 -26 -9 -21 -19 -21 -19 -52 11 -17 16 -33 25 -35 20 -2 -6 -15 1 -29 14
-14 13 -32 24 -39 24 -8 0 -14 4 -14 9 0 29 -239 40 -248 11 -2 -5 -7 -8 -11
-5 -5 2 -26 -4 -47 -15 -199 -101 -267 -387 -133 -559 11 -13 19 -20 19 -15 0
5 8 -3 17 -16 10 -14 16 -26 15 -28 -7 -7 46 -46 88 -65 147 -66 274 -61 409
16 l54 30 104 -109 c57 -60 108 -117 113 -126 9 -14 0 -25 -47 -63 -156 -124
-366 -182 -563 -155 -366 50 -608 290 -651 644 -14 111 -18 128 -28 103 -9
-25 5 -166 24 -241 63 -246 271 -447 534 -518 103 -28 317 -30 411 -5 90 24
194 76 265 131 114 88 115 89 115 72 0 -54 -201 -194 -315 -221 -16 -3 -39
-14 -49 -23 -13 -11 -17 -12 -11 -3 6 11 3 13 -16 6 -48 -16 -291 -15 -359 1
-35 8 -71 16 -80 18 -37 8 -154 60 -190 86 -16 11 -33 19 -38 18 -5 -2 -21 12
-36 30 -28 33 -60 46 -35 15 13 -16 12 -17 -4 -4 -9 8 -15 16 -12 19 9 9 -27
42 -38 35 -6 -3 -7 -1 -3 6 8 13 -18 44 -29 33 -4 -4 -5 -2 -3 3 1 6 -9 26
-23 45 -35 45 -109 186 -109 205 0 8 -7 15 -15 15 -9 0 -15 10 -15 26 0 16 -4
23 -12 18 -8 -5 -9 2 -5 27 4 20 3 29 -2 21 -9 -16 -21 78 -21 175 0 147 73
369 162 495 62 87 172 188 254 234 80 44 210 91 291 104 78 12 244 4 318 -15z
m-3551 -16 c31 -36 32 -46 9 -96 -23 -48 -43 -71 -43 -49 0 9 -4 16 -10 16 -6
0 -10 -69 -10 -187 1 -168 2 -186 15 -169 8 11 15 32 15 48 0 15 5 28 10 28 6
0 10 -8 10 -17 0 -11 17 2 47 37 27 30 102 112 169 181 109 115 120 130 116
157 -3 24 2 37 22 57 l26 26 324 -3 c179 -2 328 -6 332 -10 4 -5 0 -16 -9 -26
-10 -10 -14 -22 -10 -25 3 -4 1 -7 -6 -7 -7 0 -10 -4 -7 -8 3 -5 -14 -27 -38
-50 -35 -33 -45 -39 -57 -29 -7 7 -11 9 -8 5 2 -4 -36 -49 -86 -100 -49 -51
-146 -154 -214 -228 -266 -288 -258 -280 -271 -265 -7 8 -10 19 -8 24 1 5 78
90 169 188 91 98 211 228 266 288 55 61 112 121 127 134 35 33 33 46 -5 24
-32 -19 -88 -76 -179 -182 -30 -36 -89 -101 -132 -145 -145 -154 -300 -324
-311 -342 -11 -18 7 -18 22 0 10 12 19 6 54 -32 91 -103 171 -181 180 -175 6
3 7 2 4 -4 -3 -5 13 -27 36 -49 36 -34 38 -34 12 -5 -23 26 -25 31 -8 20 12
-7 27 -23 34 -36 7 -12 17 -19 22 -16 6 4 8 0 4 -10 -3 -9 -3 -16 1 -14 4 1 8
-2 10 -8 5 -15 44 -55 54 -55 5 0 -4 11 -19 25 -15 13 -23 25 -18 25 6 0 55
-46 110 -102 55 -56 94 -99 87 -94 -21 13 -13 1 20 -30 27 -24 29 -25 13 -4
l-20 25 27 -24 c15 -13 25 -28 21 -34 -3 -6 -1 -7 5 -3 5 3 12 1 14 -4 4 -12
82 178 322 782 91 229 166 422 166 430 0 7 -7 22 -15 32 -22 29 -18 64 10 91
l24 25 269 0 268 0 27 -28 c31 -32 34 -69 12 -112 -11 -21 -13 -39 -6 -72 12
-62 15 -72 23 -78 4 -3 10 -21 13 -40 3 -19 12 -41 20 -50 7 -8 16 -32 20 -52
4 -21 11 -35 16 -32 5 3 6 -3 2 -12 -4 -12 -3 -15 5 -10 8 4 10 2 6 -7 -3 -8
-1 -18 5 -22 6 -3 11 -15 11 -26 0 -11 5 -17 10 -14 6 3 10 1 10 -5 0 -7 6
-26 14 -43 29 -66 41 -102 38 -116 -5 -18 18 -72 28 -66 4 3 11 -2 14 -11 3
-8 2 -12 -4 -9 -6 3 -10 1 -10 -4 0 -6 5 -11 10 -11 6 0 10 -9 10 -21 0 -13 4
-18 12 -13 8 5 9 2 5 -10 -4 -10 0 -27 8 -39 8 -12 15 -29 15 -39 0 -9 6 -21
13 -25 15 -8 40 -73 33 -81 -3 -2 2 -11 10 -20 9 -8 13 -23 11 -33 -3 -11 -1
-22 4 -25 5 -3 9 -14 9 -25 0 -11 4 -17 10 -14 6 3 7 -1 4 -9 -4 -10 -1 -16 7
-16 7 0 9 -3 6 -7 -4 -3 -3 -11 3 -17 5 -7 18 -34 29 -61 14 -32 16 -43 6 -31
-8 11 -15 26 -15 35 0 8 -3 12 -6 8 -8 -8 26 -97 38 -97 5 0 7 -4 4 -9 -3 -5
1 -12 10 -15 9 -4 14 -13 10 -22 -3 -8 -2 -12 4 -9 6 3 10 -4 10 -17 0 -13 5
-29 11 -35 6 -6 14 -27 19 -47 l8 -36 -203 0 -202 0 -16 38 c-19 44 -60 151
-90 240 l-22 62 -275 -2 c-266 -3 -275 -4 -278 -23 -1 -11 -27 -85 -56 -165
l-54 -145 -388 -1 -388 -2 -275 273 c-209 207 -279 271 -291 265 -8 -5 -30
-22 -48 -38 -30 -27 -32 -31 -16 -40 13 -7 23 -2 45 23 l28 32 273 -273 273
-274 410 0 c360 0 408 -2 395 -15 -13 -12 -78 -15 -419 -15 l-404 -1 -52 51
c-28 28 -55 47 -60 43 -4 -5 -5 -2 -1 5 4 7 2 12 -5 12 -7 0 -10 3 -6 6 7 8
-54 60 -66 56 -5 -1 -5 2 -2 8 8 13 -44 65 -65 65 -8 0 -15 7 -15 15 0 20 -63
83 -75 75 -6 -4 -9 -2 -8 3 4 15 -151 174 -165 169 -7 -2 -11 -19 -11 -38 l2
-34 -16 33 c-9 17 -19 32 -24 32 -4 0 -8 -99 -8 -220 l0 -220 -201 0 c-156 0
-200 -3 -197 -12 4 -10 59 -14 222 -16 192 -2 215 -4 202 -17 -12 -12 -53 -15
-228 -15 -117 0 -220 5 -228 10 -13 8 -15 102 -18 731 -2 702 -3 722 -22 747
-33 41 -22 100 20 115 8 3 121 6 252 6 l236 1 26 -31z m4595 5 c26 -34 26 -59
0 -119 -18 -40 -23 -45 -31 -31 -5 9 -13 14 -19 11 -5 -4 -9 1 -9 9 0 9 -4 16
-10 16 -6 0 -10 -86 -10 -238 l0 -239 294 -2 295 -2 6 33 c3 18 5 124 3 235
-3 190 -4 203 -25 225 -33 36 -34 77 -3 108 19 19 33 20 269 20 l250 0 20 -26
c25 -32 26 -55 5 -117 -15 -45 -16 -46 -38 -31 l-23 14 -5 -162 c-3 -90 -5
-403 -4 -695 l1 -533 -199 -2 c-147 -2 -200 -6 -203 -15 -4 -10 48 -13 221
-15 184 -3 224 -5 217 -16 -6 -11 -54 -13 -220 -12 -144 0 -211 -3 -211 -10 0
-6 -12 0 -26 14 l-27 24 1 280 0 281 -286 1 c-191 0 -290 4 -299 11 -11 10
-13 -37 -13 -265 l0 -276 -197 -2 c-146 -2 -197 -6 -201 -15 -3 -10 45 -13
217 -13 190 0 221 -2 221 -15 0 -13 -32 -15 -230 -15 l-230 0 -10 26 c-6 15
-10 294 -10 724 0 681 -1 700 -20 732 -32 52 -23 106 20 121 8 3 124 6 257 6
l242 1 20 -26z m2181 6 c34 -34 41 -65 24 -105 -19 -47 -7 -165 18 -165 5 0 6
-5 3 -10 -4 -6 -2 -17 4 -24 6 -7 9 -20 6 -28 -3 -7 6 -29 20 -48 14 -19 25
-41 25 -49 0 -8 7 -22 15 -31 9 -10 17 -31 20 -48 2 -17 10 -41 19 -54 8 -12
13 -31 10 -43 -3 -13 1 -29 11 -38 9 -9 13 -22 9 -28 -5 -8 -3 -9 5 -4 9 5 12
0 9 -16 -2 -15 2 -23 10 -22 7 2 12 -8 12 -25 0 -15 9 -38 20 -52 11 -14 20
-36 20 -48 0 -13 9 -35 20 -49 11 -14 20 -33 20 -42 0 -9 6 -25 13 -36 7 -11
14 -29 14 -41 2 -31 42 -139 53 -142 6 -2 10 -10 10 -18 0 -8 5 -14 12 -14 6
0 8 -3 5 -7 -4 -3 -3 -11 2 -17 5 -6 11 -29 15 -51 4 -32 46 -149 91 -257 7
-17 -6 -18 -189 -18 -222 0 -207 -6 -240 93 -9 26 -30 84 -47 128 -17 44 -29
91 -27 103 l5 23 -259 1 c-254 1 -308 -4 -308 -31 0 -12 -105 -306 -112 -312
-3 -3 -417 -8 -440 -6 -11 1 72 229 187 516 13 33 67 173 120 310 237 614 222
570 202 605 -25 41 -21 75 9 99 26 20 39 21 295 21 257 0 270 -1 289 -20z
m480 -39 c0 -22 5 -52 10 -67 8 -19 8 -30 0 -38 -5 -5 -10 -25 -10 -43 l0 -34
-72 3 -73 3 -3 42 c-2 32 -7 41 -18 36 -7 -3 -14 0 -14 6 0 6 7 11 15 11 8 0
15 9 15 19 0 28 20 37 27 12 4 -17 13 -21 45 -21 35 0 40 3 54 35 16 38 20 80
5 57 -4 -8 -11 -13 -15 -13 -3 1 -29 1 -58 1 -40 0 -49 -3 -40 -12 16 -16 15
-25 -3 -25 -10 0 -15 11 -15 34 l0 33 75 0 75 0 0 -39z m-4885 -51 c18 -20 18
-21 -2 -41 l-21 -21 -21 21 c-20 20 -20 22 -3 40 22 25 25 25 47 1z m5342
-1072 c-1 -189 -2 -37 -2 337 0 374 1 528 2 343 2 -185 2 -491 0 -680z m-8690
940 c-3 -8 -6 -5 -6 6 -1 11 2 17 5 13 3 -3 4 -12 1 -19z m8443 -113 c0 -8 -9
-15 -20 -15 -18 0 -20 -7 -20 -65 l0 -65 -70 0 -70 0 0 60 c0 44 -4 61 -16 68
-37 21 -2 32 97 32 81 0 99 -3 99 -15z m-3563 -18 c-2 -6 -12 -16 -23 -23 -18
-12 -20 -11 -20 9 0 12 4 25 9 29 14 9 39 -2 34 -15z m-4880 -24 c-3 -10 -5
-4 -5 12 0 17 2 24 5 18 2 -7 2 -21 0 -30z m8413 -328 c0 -6 -15 -25 -33 -43
l-33 -32 -30 31 -29 31 40 33 40 34 22 -21 c13 -12 23 -27 23 -33z m-6960 21
c0 -2 -7 -7 -16 -10 -8 -3 -12 -2 -9 4 6 10 25 14 25 6z m-1433 -288 c-2 -35
-3 -7 -3 62 0 69 1 97 3 63 2 -35 2 -91 0 -125z m6570 -120 c-2 -13 -4 -3 -4
22 0 25 2 35 4 23 2 -13 2 -33 0 -45z m-939 5 c-10 -2 -28 -2 -40 0 -13 2 -5
4 17 4 22 1 32 -1 23 -4z m939 -250 c-2 -32 -3 -8 -3 52 0 61 1 87 3 58 2 -29
2 -78 0 -110z m-5628 -16 c-4 -37 -6 -20 -6 58 0 85 1 97 6 52 4 -33 4 -82 0
-110z m1989 105 l3 -23 -269 1 -269 1 5 24 4 24 262 -2 261 -2 3 -23z m4780
19 c19 -2 14 -39 -5 -44 -28 -8 -73 -8 -289 -1 -111 3 -206 9 -213 13 -6 4 -9
14 -6 23 5 13 40 14 253 13 136 -2 253 -3 260 -4z m-2181 -173 c-2 -18 -4 -4
-4 32 0 36 2 50 4 33 2 -18 2 -48 0 -65z m2243 -100 c0 10 4 9 16 -2 8 -9 19
-14 23 -11 5 2 13 -7 19 -20 l12 -25 214 0 c118 0 217 -4 220 -8 3 -5 -4 -16
-15 -25 -10 -9 -19 -13 -19 -8 0 6 -87 10 -201 11 -111 0 -206 3 -210 6 -5 3
-9 14 -9 25 0 10 -4 18 -9 17 -5 -2 -17 6 -26 17 -16 19 -16 19 -11 -10 7 -35
-7 -15 -18 25 -6 19 -5 21 3 10 8 -11 11 -12 11 -2z m-4746 -6 c2 -4 -4 -8
-14 -8 -10 0 -16 4 -14 8 3 4 9 8 14 8 5 0 11 -4 14 -8z m791 -20 c-3 -3 -11
0 -18 7 -9 10 -8 11 6 5 10 -3 15 -9 12 -12z m-546 -34 l223 -3 -21 -24 c-12
-13 -21 -19 -21 -13 0 9 -57 12 -206 12 -197 0 -206 1 -211 20 -3 11 -9 17
-14 14 -5 -3 -6 3 -2 12 6 15 7 15 18 1 10 -14 43 -17 234 -19z m606 -6 c-5
-5 -45 22 -45 31 0 4 11 0 24 -10 13 -10 23 -19 21 -21z m3265 1 c-11 -17 -11
-17 -6 0 3 10 6 24 7 30 0 9 2 9 5 0 3 -7 0 -20 -6 -30z m-5719 0 c13 -17 13
-17 -5 -3 -18 14 -19 13 -12 -5 5 -15 4 -17 -5 -8 -6 6 -8 16 -5 22 9 14 11
14 27 -6z m5460 7 c180 0 209 -2 209 -15 0 -13 -29 -15 -222 -13 -210 3 -223
4 -226 22 -3 14 0 17 13 12 9 -3 111 -6 226 -6z m-6864 -32 c-3 -8 -6 -5 -6 6
-1 11 2 17 5 13 3 -3 4 -12 1 -19z m3913 -3 c17 -9 30 -18 30 -21 0 -4 -59 23
-69 32 -10 9 13 3 39 -11z m-920 -10 c0 -8 -2 -15 -4 -15 -2 0 -6 7 -10 15 -3
8 -1 15 4 15 6 0 10 -7 10 -15z m-2956 -90 c4 -11 -2 -4 -13 15 -11 19 -20 44
-20 55 0 18 10 -2 33 -70z m883 43 c-3 -8 -6 -5 -6 6 -1 11 2 17 5 13 3 -3 4
-12 1 -19z m2133 -21 c24 -4 24 -4 -2 -6 -19 -1 -31 6 -38 22 -10 19 -9 20 2
5 8 -9 25 -18 38 -21z m1065 2 c-5 -6 -55 0 -55 7 0 3 13 3 29 2 16 -1 28 -5
26 -9z m312 5 c-3 -3 -12 -4 -19 -1 -8 3 -5 6 6 6 11 1 17 -2 13 -5z m-4458
-34 c11 -24 11 -24 -3 -6 -9 11 -16 24 -16 30 0 12 5 7 19 -24z m844 23 c-13
-2 -33 -2 -45 0 -13 2 -3 4 22 4 25 0 35 -2 23 -4z m720 0 c-7 -2 -21 -2 -30
0 -10 3 -4 5 12 5 17 0 24 -2 18 -5z m480 0 c-13 -2 -33 -2 -45 0 -13 2 -3 4
22 4 25 0 35 -2 23 -4z m1280 0 c-13 -2 -33 -2 -45 0 -13 2 -3 4 22 4 25 0 35
-2 23 -4z m864 1 c-3 -3 -12 -4 -19 -1 -8 3 -5 6 6 6 11 1 17 -2 13 -5z m113
-4 c0 -6 -23 -9 -52 -8 l-53 1 45 7 c25 4 48 8 53 8 4 1 7 -2 7 -8z m178 -5
c-11 -9 -98 -11 -101 -1 -3 7 13 10 50 8 30 -2 53 -5 51 -7z m39 9 c-3 -3 -12
-4 -19 -1 -8 3 -5 6 6 6 11 1 17 -2 13 -5z m1650 0 c-3 -3 -12 -4 -19 -1 -8 3
-5 6 6 6 11 1 17 -2 13 -5z m-6045 -109 c9 -17 9 -18 -3 -8 -8 6 -22 26 -32
45 l-19 33 21 -25 c12 -14 27 -34 33 -45z m4823 30 c28 -27 32 -50 10 -71 -12
-13 -14 -11 -10 16 2 16 -1 30 -6 30 -5 0 -9 -6 -10 -12 0 -10 -2 -10 -6 -1
-7 18 -43 -7 -43 -29 0 -25 -16 -31 -34 -12 -24 23 -19 60 10 83 35 27 59 26
89 -4z m-4710 -113 c-3 -3 -11 0 -18 7 -9 10 -8 11 6 5 10 -3 15 -9 12 -12z
m4775 -67 c22 -20 29 -44 8 -27 -20 15 -77 21 -71 7 3 -8 -26 -14 -94 -18 -54
-3 -99 -4 -102 -2 -2 2 11 18 28 36 32 31 32 31 121 27 68 -3 94 -8 110 -23z
m103 -105 c5 -4 -35 -11 -90 -14 -112 -7 -240 -22 -298 -34 -32 -7 -36 -11
-22 -17 10 -4 39 -5 65 -2 67 7 392 -9 422 -21 18 -8 -70 -11 -312 -11 -200
-1 -338 3 -338 8 0 13 75 76 109 93 21 10 78 12 242 10 118 -2 218 -7 222 -12z
m-1019 -17 c36 -18 66 -43 66 -54 0 -9 -12 -7 -105 20 -38 12 -84 21 -102 21
-17 0 -35 5 -38 10 -3 6 -23 11 -43 12 -31 1 -28 2 18 8 73 10 167 2 204 -17z
m-1156 5 c17 -17 15 -45 -5 -53 -10 -4 -108 -9 -218 -10 -110 -2 -251 -11
-313 -19 -137 -19 -636 -23 -648 -5 -3 6 1 18 10 27 14 15 55 18 309 23 195 4
305 10 332 19 72 23 127 28 326 29 140 1 198 -2 207 -11z m707 2 c-11 -5 -31
-9 -45 -10 -38 -2 -167 -47 -150 -52 8 -3 5 -3 -7 -1 -13 2 -32 -2 -42 -9 -11
-7 -24 -9 -28 -5 -12 13 11 40 57 64 37 20 58 23 139 22 63 0 89 -3 76 -9z
m2645 -15 c120 -23 158 -25 387 -25 156 0 262 -4 274 -10 27 -15 24 -38 -6
-46 -42 -10 -585 3 -640 16 -31 7 -132 11 -262 11 -117 -1 -231 3 -254 8 -53
12 -66 30 -38 54 19 15 45 17 214 17 163 0 212 -4 325 -25z m-2753 -31 c-3 -3
-12 -4 -19 -1 -8 3 -5 6 6 6 11 1 17 -2 13 -5z m287 -34 c72 -12 188 -69 239
-118 46 -44 99 -137 67 -117 -6 4 -7 -1 -3 -11 4 -12 3 -15 -5 -10 -8 5 -10 1
-6 -11 4 -10 -9 -2 -27 18 -31 33 -39 36 -96 38 -52 2 -69 -2 -103 -24 -41
-26 -85 -98 -73 -119 3 -5 1 -6 -6 -2 -18 11 -106 -13 -130 -35 -15 -14 -21
-32 -21 -62 0 -66 9 -84 40 -91 16 -3 44 -19 63 -36 19 -16 43 -30 53 -30 30
0 4 -16 -76 -46 -65 -24 -91 -28 -205 -30 -71 -2 -143 0 -159 3 -26 5 -28 9
-23 40 21 125 279 377 454 443 32 12 90 24 130 27 70 6 73 5 123 -31 l52 -37
-29 36 c-72 93 -189 102 -353 28 -67 -30 -180 -115 -248 -187 -91 -96 -132
-157 -159 -236 -15 -46 -22 -57 -22 -37 -1 15 -5 27 -9 27 -4 0 -6 16 -4 35 2
19 1 43 -3 52 -6 16 -8 15 -20 -7 -13 -23 -14 -23 -15 -4 0 11 14 42 31 68 16
27 28 51 25 53 -3 3 -23 -23 -45 -57 -23 -36 -41 -55 -41 -45 0 39 -12 4 -16
-48 -3 -30 -8 -67 -12 -82 l-8 -27 -31 26 c-64 54 -69 158 -15 269 68 137 305
312 487 361 111 29 118 29 199 16z m1554 -65 c18 -6 15 -24 -5 -25 -10 0 -177
-3 -370 -6 -206 -4 -351 -10 -347 -15 3 -5 2 -9 -3 -10 -114 -7 -203 -9 -219
-4 -26 6 -37 30 -25 53 8 16 48 17 483 14 260 -1 479 -5 486 -7z m-2259 -34
c10 -6 -21 -11 -90 -13 -170 -5 -797 5 -754 12 62 11 828 11 844 1z m3266 -1
c55 -6 52 -7 -45 -9 -131 -1 -842 -4 -853 -2 -5 1 -5 6 -2 11 7 12 806 12 900
0z m312 -72 c26 -25 32 -47 6 -27 -15 12 -16 12 -10 -3 4 -12 2 -15 -7 -12 -8
3 -17 1 -21 -5 -3 -6 -27 -21 -53 -32 -26 -12 -76 -35 -112 -52 -36 -17 -67
-32 -70 -32 -3 0 -15 -6 -27 -13 -13 -7 -23 -9 -23 -5 0 4 -4 4 -8 -2 -4 -5
-25 -19 -47 -29 -22 -11 -54 -30 -72 -43 -17 -13 -37 -23 -44 -23 -6 0 -18 -8
-26 -17 -8 -10 -12 -12 -8 -5 3 6 1 12 -4 12 -6 0 -11 -7 -11 -15 0 -24 -15
-17 -18 8 -1 12 -3 31 -5 42 -2 16 20 31 118 80 118 59 406 195 414 195 3 0
15 -10 28 -22z m-4579 -50 c-3 -60 -4 -63 -30 -66 l-28 -3 0 65 0 66 30 0 31
0 -3 -62z m3274 30 c-9 -9 -79 -15 -235 -20 -498 -15 -638 -30 -377 -41 169
-7 320 -31 377 -61 60 -31 73 -59 73 -158 0 -101 -7 -120 -53 -145 -27 -15
-66 -18 -262 -21 -150 -3 -254 0 -298 8 -38 7 -71 10 -73 7 -12 -12 122 -30
306 -42 l195 -13 -245 1 c-360 3 -360 3 -360 281 0 160 -1 171 -22 193 l-21
23 503 0 c402 0 501 -3 492 -12z m-2602 -48 c43 -22 85 -74 74 -91 -4 -8 -3
-9 4 -5 7 4 12 3 12 -3 0 -5 3 -17 7 -27 4 -11 3 -15 -5 -10 -7 4 -13 -10 -18
-39 -12 -86 -71 -140 -165 -152 -77 -11 -159 52 -175 134 -8 41 19 133 48 160
57 53 150 67 218 33z m3145 12 c-6 -5 -30 -14 -55 -21 -25 -7 -94 -38 -155
-68 -89 -44 -105 -50 -87 -30 27 29 132 83 212 108 59 19 100 24 85 11z
m-1890 -55 c13 -14 14 -17 3 -8 -15 11 -18 11 -18 0 0 -10 -3 -10 -12 -1 -7 7
-29 12 -50 12 -35 0 -47 8 -32 23 13 13 90 -5 109 -26z m114 -17 c0 -8 -5 -4
-13 10 -7 14 -10 29 -8 34 6 11 20 -20 21 -44z m1828 5 c15 -13 22 -25 15 -25
-7 0 -10 -4 -7 -10 3 -5 1 -10 -5 -10 -6 0 -26 -11 -43 -24 -18 -14 -45 -30
-61 -35 -42 -16 -175 -29 -179 -17 -2 5 -12 1 -24 -9 -20 -16 -20 -19 -5 -45
9 -16 21 -26 26 -23 5 3 6 1 2 -5 -11 -19 -32 -3 -46 36 -7 20 -15 42 -17 48
-2 6 33 27 79 47 46 20 113 50 148 66 36 17 70 31 77 31 7 0 25 -11 40 -25z
m-2001 -37 c-4 6 -5 12 -2 12 14 0 37 -64 31 -88 -15 -59 -98 -85 -129 -40
-32 45 -13 101 42 124 22 9 30 8 46 -5 11 -9 16 -10 12 -3z m2066 -38 l22 -35
-22 19 c-12 11 -22 25 -22 32 0 7 -5 15 -10 17 -7 4 -7 5 0 4 6 -1 21 -18 32
-37z m88 31 c0 -6 -4 -13 -10 -16 -5 -3 -10 1 -10 9 0 9 5 16 10 16 6 0 10 -4
10 -9z m-3249 -112 c-5 -13 -10 -19 -10 -12 -1 15 10 45 15 40 3 -2 0 -15 -5
-28z m3186 -11 c-3 -7 -5 -2 -5 12 0 14 2 19 5 13 2 -7 2 -19 0 -25z m-2048
-25 c-12 -15 -12 -16 6 -9 15 5 17 4 8 -5 -17 -17 -37 -1 -22 17 6 8 14 14 16
14 3 0 -1 -8 -8 -17z m-1184 -40 c-27 -27 -25 -21 5 25 8 12 16 18 18 12 2 -5
-9 -22 -23 -37z m1014 23 c10 -11 9 -21 -4 -45 -18 -35 -30 -38 -57 -14 -24
21 -23 39 4 57 28 20 42 20 57 2z m150 -9 c8 -10 5 -18 -12 -33 -35 -30 -70
-50 -100 -58 -24 -6 -26 -4 -18 11 5 10 14 30 20 46 7 18 18 27 33 27 13 0 30
5 38 10 20 13 26 12 39 -3z m2039 -29 c10 3 4 -8 -14 -27 -16 -18 -37 -34 -45
-35 -8 -2 -22 -6 -32 -11 -31 -13 -30 3 1 19 16 8 33 12 36 8 4 -3 4 2 0 12
-5 12 -2 22 9 28 10 5 18 17 18 26 1 11 3 9 6 -5 3 -16 9 -20 21 -15z m-320
-10 c3 2 8 -2 10 -8 3 -9 -1 -9 -16 -1 -11 6 -22 18 -26 28 -5 15 -3 15 9 -2
9 -11 19 -19 23 -17z m42 -36 c0 -5 10 -14 23 -20 12 -6 17 -11 11 -11 -7 -1
-22 8 -35 19 -13 10 -18 19 -11 20 6 0 12 -4 12 -8z m149 -38 c2 -2 -16 -4
-42 -4 -25 0 -48 4 -51 9 -5 8 84 3 93 -5z m-2633 -114 c52 0 94 -4 94 -9 0
-5 -8 -12 -17 -14 -10 -3 7 -6 37 -8 l55 -2 -60 -7 c-58 -6 -59 -7 -15 -9 25
-1 39 -5 32 -8 -30 -12 -216 18 -266 42 l-51 25 49 -5 c27 -3 91 -5 142 -5z
m2074 0 c8 -5 13 -10 10 -11 -34 -6 -345 -22 -520 -26 -143 -4 -214 -9 -195
-14 18 -5 -20 -7 -93 -4 -94 3 -121 1 -115 -8 4 -7 -12 3 -35 21 -23 19 -42
38 -42 43 0 12 970 12 990 -1z m-395 -90 c34 -7 28 -8 -45 -10 -74 -3 -79 -4
-40 -10 58 -9 25 -12 -105 -10 -92 1 -252 22 -295 38 -26 10 435 2 485 -8z"/>
<path d="M5370 7320 c0 -5 7 -10 15 -10 8 0 15 5 15 10 0 6 -7 10 -15 10 -8 0
-15 -4 -15 -10z"/>
<path d="M5102 7141 c-11 -7 -11 -9 2 -14 10 -4 16 -1 16 8 0 17 -1 17 -18 6z"/>
<path d="M5060 7120 c0 -5 7 -10 15 -10 9 0 12 -6 8 -17 -6 -15 -5 -16 9 -3
16 14 16 16 0 28 -19 15 -32 16 -32 2z"/>
<path d="M5200 7180 c0 -5 4 -10 9 -10 6 0 13 5 16 10 3 6 -1 10 -9 10 -9 0
-16 -4 -16 -10z"/>
<path d="M5200 7149 c0 -5 5 -7 10 -4 6 3 10 8 10 11 0 2 -4 4 -10 4 -5 0 -10
-5 -10 -11z"/>
<path d="M4745 7050 c-3 -5 -1 -10 4 -10 6 0 11 5 11 10 0 6 -2 10 -4 10 -3 0
-8 -4 -11 -10z"/>
<path d="M4970 6874 c0 -14 3 -14 15 -4 8 7 15 14 15 16 0 2 -7 4 -15 4 -8 0
-15 -7 -15 -16z"/>
<path d="M5100 6745 c-11 -13 -10 -14 4 -9 9 3 16 10 16 15 0 13 -6 11 -20 -6z"/>
<path d="M5618 6573 c12 -2 32 -2 45 0 12 2 2 4 -23 4 -25 0 -35 -2 -22 -4z"/>
<path d="M5938 6563 c12 -2 32 -2 45 0 12 2 2 4 -23 4 -25 0 -35 -2 -22 -4z"/>
<path d="M8848 6643 c7 -3 16 -2 19 1 4 3 -2 6 -13 5 -11 0 -14 -3 -6 -6z"/>
<path d="M1370 6380 c-10 -7 22 -9 100 -9 88 1 106 3 75 10 -55 11 -157 11
-175 -1z"/>
<path d="M4258 6473 c12 -2 32 -2 45 0 12 2 2 4 -23 4 -25 0 -35 -2 -22 -4z"/>
<path d="M2886 6147 c3 -10 9 -15 12 -12 3 3 0 11 -7 18 -10 9 -11 8 -5 -6z"/>
<path d="M3775 6196 c-9 -10 -11 -23 -5 -43 1 -5 6 5 11 21 10 34 8 39 -6 22z"/>
<path d="M4538 6063 c7 -3 16 -2 19 1 4 3 -2 6 -13 5 -11 0 -14 -3 -6 -6z"/>
<path d="M4795 6180 c3 -5 8 -10 11 -10 2 0 4 5 4 10 0 6 -5 10 -11 10 -5 0
-7 -4 -4 -10z"/>
<path d="M6170 6091 c0 -6 4 -13 10 -16 6 -3 7 1 4 9 -7 18 -14 21 -14 7z"/>
<path d="M1326 6005 c4 -44 8 -82 10 -84 9 -10 3 136 -6 149 -7 10 -8 -10 -4
-65z"/>
<path d="M1125 5556 c-24 -25 -20 -91 5 -91 12 0 15 13 16 58 0 31 0 57 0 56
-1 -1 -10 -11 -21 -23z"/>
<path d="M4988 5803 c7 -3 16 -2 19 1 4 3 -2 6 -13 5 -11 0 -14 -3 -6 -6z"/>
<path d="M5018 5763 c6 -2 18 -2 25 0 6 3 1 5 -13 5 -14 0 -19 -2 -12 -5z"/>
<path d="M5247 5755 c3 -8 9 -12 14 -9 12 7 11 11 -5 17 -10 4 -13 1 -9 -8z"/>
<path d="M5220 5750 c0 -5 5 -10 11 -10 5 0 7 5 4 10 -3 6 -8 10 -11 10 -2 0
-4 -4 -4 -10z"/>
<path d="M5000 5603 c-37 -7 -47 -21 -19 -27 42 -8 102 -2 106 12 3 6 -1 12
-9 12 -7 0 -22 2 -33 4 -11 2 -31 2 -45 -1z"/>
<path d="M5262 5575 c0 -16 2 -22 5 -12 2 9 2 23 0 30 -3 6 -5 -1 -5 -18z"/>
<path d="M5280 5576 c0 -34 25 -40 39 -10 15 33 15 34 -14 34 -20 0 -25 -5
-25 -24z"/>
<path d="M5225 5550 c3 -5 8 -10 11 -10 2 0 4 5 4 10 0 6 -5 10 -11 10 -5 0
-7 -4 -4 -10z"/>
<path d="M5260 5531 c0 -6 4 -13 10 -16 6 -3 7 1 4 9 -7 18 -14 21 -14 7z"/>
<path d="M2305 5559 c-4 -6 -5 -12 -2 -15 2 -3 7 2 10 11 7 17 1 20 -8 4z"/>
<path d="M8220 5368 c0 -22 3 -23 75 -20 53 3 75 7 75 17 0 16 -32 25 -97 25
-48 0 -53 -2 -53 -22z"/>
<path d="M8705 5380 c11 -5 61 -9 110 -9 114 0 113 1 95 -11 -9 -6 -10 -10 -3
-10 19 0 27 21 12 31 -8 5 -63 8 -124 8 -73 0 -103 -3 -90 -9z"/>
<path d="M8823 5353 c15 -2 37 -2 50 0 12 2 0 4 -28 4 -27 0 -38 -2 -22 -4z"/>
<path d="M2220 5182 c0 -4 33 -6 73 -4 113 5 121 9 20 11 -51 0 -93 -3 -93 -7z"/>
<path d="M2470 5170 c-4 -21 -10 -25 -35 -23 -16 2 -48 3 -70 4 -35 0 -37 1
-15 9 l25 8 -27 1 c-19 1 -28 -4 -28 -14 0 -8 5 -15 12 -15 6 0 9 -2 6 -5 -3
-3 -17 1 -33 9 -23 12 -24 15 -8 19 10 3 1 5 -19 6 -42 1 -55 -11 -33 -32 8
-9 15 -20 15 -26 0 -15 60 -81 73 -81 6 0 3 6 -8 13 -10 8 -15 19 -11 25 4 6
2 20 -3 30 -9 16 -7 19 16 18 19 -1 27 -7 28 -21 2 -11 6 -29 10 -40 5 -16 5
-17 -4 -5 -7 9 -11 11 -11 3 0 -7 15 -19 34 -28 28 -13 43 -15 78 -6 l43 10
-51 -5 c-32 -4 -54 -1 -59 5 -3 6 1 11 10 11 22 0 45 24 45 48 0 11 7 23 16
26 8 3 12 10 9 16 -4 6 1 7 11 3 11 -4 13 -8 6 -11 -7 -2 -12 -11 -12 -19 0
-11 5 -13 18 -8 9 5 25 8 34 9 15 0 15 2 -2 18 -11 10 -26 18 -34 18 -8 0 -16
12 -18 28 l-4 27 -4 -25z"/>
<path d="M2511 5181 c-8 -5 1 -8 27 -7 23 0 35 4 29 8 -16 10 -39 10 -56 -1z"/>
<path d="M2561 5084 c0 -11 3 -14 6 -6 3 7 2 16 -1 19 -3 4 -6 -2 -5 -13z"/>
<path d="M2230 5086 c0 -2 8 -10 18 -17 15 -13 16 -12 3 4 -13 16 -21 21 -21
13z"/>
<path d="M2338 5013 c6 -2 18 -2 25 0 6 3 1 5 -13 5 -14 0 -19 -2 -12 -5z"/>
<path d="M1100 5100 c6 -11 12 -20 14 -20 2 0 2 9 -1 20 -3 11 -9 20 -15 20
-5 0 -4 -9 2 -20z"/>
<path d="M1300 5059 c0 -5 60 -9 133 -8 72 0 128 2 122 4 -24 8 -255 11 -255
4z"/>
<path d="M5780 5098 c0 -7 5 -20 10 -28 8 -12 10 -11 10 7 0 12 -4 25 -10 28
-5 3 -10 0 -10 -7z"/>
<path d="M6018 5103 c12 -2 32 -2 45 0 12 2 2 4 -23 4 -25 0 -35 -2 -22 -4z"/>
<path d="M5898 5083 c7 -3 16 -2 19 1 4 3 -2 6 -13 5 -11 0 -14 -3 -6 -6z"/>
<path d="M5810 5039 c0 -11 40 -32 48 -25 3 3 0 6 -7 6 -7 0 -10 4 -7 9 3 5
-3 11 -14 14 -11 3 -20 1 -20 -4z"/>
<path d="M5891 5046 c2 -2 33 -6 69 -9 41 -3 54 -2 35 3 -31 8 -112 13 -104 6z"/>
<path d="M6120 5040 c-18 -12 -2 -12 25 0 13 6 15 9 5 9 -8 0 -22 -4 -30 -9z"/>
<path d="M3946 5086 c10 -8 20 -11 22 -6 2 5 18 7 35 4 26 -3 28 -2 12 5 -11
5 -35 10 -54 10 -33 1 -34 0 -15 -13z"/>
<path d="M3986 5038 c5 -8 1 -9 -12 -4 -14 5 -16 4 -8 -4 9 -9 17 -9 34 0 12
6 34 9 48 6 20 -5 23 -4 12 4 -22 14 -83 13 -74 -2z"/>
<path d="M6763 5043 c9 -2 23 -2 30 0 6 3 -1 5 -18 5 -16 0 -22 -2 -12 -5z"/>
<path d="M1618 4853 c12 -2 32 -2 45 0 12 2 2 4 -23 4 -25 0 -35 -2 -22 -4z"/>
<path d="M6913 4853 c9 -2 25 -2 35 0 9 3 1 5 -18 5 -19 0 -27 -2 -17 -5z"/>
<path d="M3472 3886 c-6 -24 -37 -108 -68 -187 -31 -79 -66 -172 -79 -206
l-24 -62 194 -1 194 0 -41 102 c-23 57 -61 157 -85 223 -74 204 -72 201 -91
131z m111 -371 c-3 -9 -8 -14 -10 -11 -3 3 -2 9 2 15 9 16 15 13 8 -4z"/>
<path d="M6326 3450 c-37 -4 -46 -8 -35 -15 22 -16 649 -8 649 8 0 9 -67 12
-283 12 -155 0 -304 -2 -331 -5z"/>
<path d="M8275 3903 c-6 -25 -77 -217 -149 -405 l-26 -68 191 0 190 0 -7 23
c-4 12 -30 83 -59 157 -29 74 -68 177 -86 228 -18 50 -36 92 -40 92 -4 0 -10
-12 -14 -27z m109 -419 c3 -8 2 -12 -4 -9 -6 3 -10 10 -10 16 0 14 7 11 14 -7z"/>
<path d="M8920 4241 c0 -11 -3 -26 -6 -35 -5 -13 2 -16 44 -16 56 0 67 9 58
46 -6 21 -12 24 -51 24 -38 0 -45 -3 -45 -19z"/>
<path d="M4120 4286 c0 -2 7 -6 15 -10 8 -3 15 -1 15 4 0 6 -7 10 -15 10 -8 0
-15 -2 -15 -4z"/>
<path d="M9100 4006 c0 -19 -3 -42 -6 -51 -6 -14 0 -16 37 -13 l44 3 0 45 c0
45 0 45 -37 48 -37 3 -38 3 -38 -32z"/>
<path d="M4132 1728 c-7 -7 -12 -21 -12 -32 0 -17 3 -16 15 8 17 32 15 42 -3
24z"/>
<path d="M4006 1705 c-9 -26 -7 -32 5 -12 6 10 9 21 6 23 -2 3 -7 -2 -11 -11z"/>
<path d="M3979 1672 c7 -5 10 -15 7 -21 -4 -6 -3 -18 2 -28 8 -13 9 -9 8 17
-1 20 -7 35 -16 38 -12 3 -13 2 -1 -6z"/>
<path d="M4078 1493 c18 -2 45 -2 60 0 15 2 0 4 -33 4 -33 0 -45 -2 -27 -4z"/>
<path d="M4915 7654 c-33 -31 -77 -69 -98 -84 -21 -16 -34 -31 -29 -33 4 -3
30 15 57 39 27 25 54 43 62 40 9 -4 11 -1 7 5 -4 6 12 29 36 50 23 22 39 39
34 39 -5 -1 -36 -26 -69 -56z"/>
<path d="M5301 7701 c-11 -7 -11 -9 0 -14 12 -5 12 -7 1 -15 -11 -7 -11 -10 2
-15 8 -3 25 2 37 12 19 15 20 19 6 24 -11 4 -14 2 -10 -9 3 -7 0 -14 -6 -14
-10 0 -15 14 -12 33 1 9 -1 9 -18 -2z"/>
<path d="M5369 7661 c9 -6 10 -11 2 -15 -6 -4 -15 -5 -19 -2 -4 2 -14 0 -22
-6 -12 -8 -11 -9 4 -4 14 5 17 2 12 -9 -3 -9 -2 -14 3 -11 5 3 19 -3 31 -14
28 -25 32 -25 47 -1 10 16 7 23 -18 45 -16 14 -34 26 -41 26 -10 0 -10 -2 1
-9z m31 -31 c0 -5 -9 -8 -19 -7 -15 1 -17 4 -9 14 11 13 28 9 28 -7z m24 -9
c3 -5 -1 -11 -9 -14 -9 -4 -12 -1 -8 9 6 16 10 17 17 5z"/>
<path d="M5425 7579 c-4 -6 -14 -8 -24 -4 -9 3 -5 -6 11 -22 22 -22 30 -25 40
-15 11 11 9 12 -7 7 -16 -5 -17 -5 -5 3 20 15 32 4 20 -19 -7 -12 -7 -19 -1
-19 6 0 19 -9 30 -21 11 -12 24 -18 30 -14 6 3 14 -2 18 -12 4 -10 17 -29 30
-43 l23 -24 6 33 c4 20 10 28 14 21 5 -8 10 -9 14 -2 4 6 -4 16 -16 23 -12 7
-29 18 -36 26 -8 8 -17 11 -20 8 -3 -3 4 -13 17 -21 16 -12 20 -19 12 -27 -8
-8 -16 -5 -27 12 -9 12 -22 20 -29 17 -20 -7 -37 15 -24 31 14 17 -3 17 -20 1
-11 -11 -12 -10 -6 1 13 22 13 61 0 52 -9 -6 -17 -7 -42 -2 -5 1 -1 6 7 11 9
6 10 10 3 10 -6 0 -15 -5 -18 -11z m165 -149 c0 -5 -4 -10 -10 -10 -5 0 -10 5
-10 10 0 6 5 10 10 10 6 0 10 -4 10 -10z"/>
<path d="M5494 7548 c-4 -7 -4 -10 1 -6 4 4 15 2 24 -5 14 -11 14 -10 2 6 -16
20 -18 21 -27 5z"/>
<path d="M4743 7504 c-12 -13 -19 -24 -14 -24 4 0 18 11 31 25 13 14 19 25 14
24 -5 -1 -19 -12 -31 -25z"/>
<path d="M4684 7459 c-19 -22 -19 -22 4 -8 12 8 22 17 22 21 0 12 -6 9 -26
-13z"/>
<path d="M5662 7409 c21 -17 35 -35 32 -40 -3 -5 -14 1 -24 13 -10 13 -21 20
-25 16 -4 -3 3 -16 15 -28 17 -17 24 -19 36 -9 13 10 10 17 -18 46 -17 18 -37
33 -42 33 -6 -1 6 -14 26 -31z"/>
<path d="M4609 7393 c-13 -17 -13 -17 6 -3 11 8 22 16 24 17 2 2 0 3 -6 3 -6
0 -17 -8 -24 -17z"/>
<path d="M5735 7342 c10 -17 22 -29 27 -26 13 9 9 18 -19 38 l-26 19 18 -31z"/>
<path d="M4524 7318 l-19 -23 23 19 c21 18 27 26 19 26 -2 0 -12 -10 -23 -22z"/>
<path d="M5715 7310 c-3 -6 1 -7 9 -4 18 7 21 14 7 14 -6 0 -13 -4 -16 -10z"/>
<path d="M5770 7310 c0 -5 4 -10 9 -10 13 0 76 -63 73 -73 -1 -5 1 -6 6 -3 4
3 27 -12 50 -33 23 -21 42 -36 42 -32 0 7 -166 161 -174 161 -3 0 -6 -4 -6
-10z"/>
<path d="M4449 7253 l-24 -28 28 24 c25 23 32 31 24 31 -2 0 -14 -12 -28 -27z"/>
<path d="M5816 7237 c3 -10 9 -15 12 -12 3 3 0 11 -7 18 -10 9 -11 8 -5 -6z"/>
<path d="M4265 7088 c-66 -60 -159 -144 -207 -187 -48 -42 -83 -78 -78 -79 6
-2 7 -9 4 -14 -4 -6 -2 -8 3 -5 6 4 13 0 17 -8 3 -8 1 -15 -4 -15 -6 0 -10 -5
-10 -10 0 -14 47 17 54 36 4 11 2 12 -12 5 -11 -6 -21 -5 -29 4 -9 10 -7 17
10 32 22 19 67 26 67 11 0 -4 4 -8 10 -8 5 0 7 7 4 15 -4 10 -13 13 -25 10
-26 -9 -15 16 15 35 14 8 45 34 70 58 44 41 64 54 50 30 -4 -7 -3 -8 4 -4 6 4
9 13 5 21 -6 18 8 19 27 3 12 -11 12 -10 2 3 -9 13 2 28 69 93 45 42 79 79 77
81 -1 2 -57 -46 -123 -107z"/>
<path d="M6000 7112 c25 -23 49 -41 54 -42 5 0 1 -10 -10 -22 -19 -23 -19 -23
2 -6 11 10 25 14 30 10 6 -4 -11 12 -36 36 -25 23 -54 48 -65 54 -11 6 0 -8
25 -30z"/>
<path d="M6060 7003 c-13 -15 -12 -16 3 -10 16 6 22 -3 18 -26 -1 -5 2 -6 7
-3 4 2 14 1 22 -5 9 -5 10 -9 4 -9 -7 0 8 -20 33 -45 46 -44 46 -44 74 -28 16
9 25 19 21 22 -4 4 -11 11 -15 16 -5 6 -7 3 -3 -7 7 -22 -3 -23 -19 -2 -6 9
-24 18 -39 19 -27 3 -62 25 -40 25 6 0 15 -5 21 -11 8 -8 13 -8 17 0 4 6 2 11
-3 11 -6 0 -10 3 -10 8 5 28 -2 35 -16 16 -11 -15 -14 -16 -15 -3 0 8 6 21 13
28 10 11 8 11 -10 0 -12 -7 -19 -18 -16 -24 4 -5 2 -6 -3 -2 -5 5 -9 16 -9 24
0 23 -17 25 -35 6z m127 -99 c-3 -3 -12 -4 -19 -1 -8 3 -5 6 6 6 11 1 17 -2
13 -5z"/>
<path d="M6350 6796 c0 -2 8 -10 18 -17 15 -13 16 -12 3 4 -13 16 -21 21 -21
13z"/>
<path d="M3879 6749 l-24 -20 28 17 c15 9 27 18 27 20 0 8 -8 4 -31 -17z"/>
<path d="M3794 6678 l-19 -23 23 19 c21 18 27 26 19 26 -2 0 -12 -10 -23 -22z"/>
<path d="M2950 6673 c0 -5 65 -10 145 -12 101 -2 145 0 145 8 0 8 -46 11 -145
11 -80 0 -145 -3 -145 -7z"/>
<path d="M7113 6673 c48 -2 125 -2 170 0 45 1 6 3 -88 3 -93 0 -130 -2 -82 -3z"/>
</g>
</svg>
